<?xml version="1.0" encoding="UTF-8"?>
<svg version="1.1" xmlns="http://www.w3.org/2000/svg" width="2503" height="965">
<path d="M0 0 C3.20777226 2.53299059 4.7951013 4.07391898 5.68774414 8.10839844 C5.71989014 9.2637207 5.75203613 10.41904297 5.78515625 11.609375 C5.83833008 12.90891113 5.89150391 14.20844727 5.94628906 15.54736328 C5.96469849 16.23252014 5.98310791 16.917677 6.0020752 17.62359619 C6.10495742 21.24411536 6.29732641 24.85978031 6.48828125 28.4765625 C6.52565399 29.2035434 6.56302673 29.93052429 6.60153198 30.67953491 C8.88033304 72.06235287 23.50202542 113.17359284 54.47265625 141.65917969 C72.44690429 157.43836291 96.17758785 167.48079595 119.97265625 169.4140625 C120.87000488 169.49108398 121.76735352 169.56810547 122.69189453 169.64746094 C124.49222633 169.79666147 126.2941323 169.92815618 128.09716797 170.04003906 C131.94781106 170.34844809 134.34849334 170.54513712 137.5625 172.7890625 C139.1623926 175.24976687 139.56749367 176.58369712 139.5625 179.5 C139.58441406 180.2528125 139.60632813 181.005625 139.62890625 181.78125 C138.65496842 185.21725427 137.03538844 186.19227521 134 188 C131.15346776 188.48065812 128.54802847 188.77494914 125.6875 188.9375 C111.9734969 190.10619588 100.04508248 194.36151704 88 201 C89.43911048 204.11101824 91.1984885 206.69753081 93.25 209.4375 C101.01875272 220.47560283 106.36653344 233.33644776 106 247 C107.09054687 247.03867187 107.09054687 247.03867187 108.203125 247.078125 C124.09659964 247.97467998 138.24722469 254.29191583 150 265 C150.66 265 151.32 265 152 265 C158.94863182 252.15674232 163.31162396 239.85005201 164.05395508 225.12792969 C164.35279771 221.05206079 164.73011128 219.34921412 167.3125 216.0078125 C171.36161971 212.98274341 173.05344193 213.29334885 178 214 C180.63106604 216.03462854 181.82419074 217.30904254 182.65014648 220.55517578 C182.72305908 221.5089209 182.79597168 222.46266602 182.87109375 223.4453125 C183.01526733 225.04693237 183.01526733 225.04693237 183.16235352 226.6809082 C183.25315186 227.8174585 183.3439502 228.95400879 183.4375 230.125 C186.59284113 261.67190548 199.64495538 290.09085488 224 311 C252.22013689 334.07768825 288.26359476 344.6972183 324.265625 346.44921875 C324.9849823 346.48603256 325.7043396 346.52284637 326.44549561 346.56077576 C330.0464937 346.74239249 333.64501345 346.89608497 337.24902344 347.00268555 C338.58271576 347.06092473 339.91637651 347.11989284 341.25 347.1796875 C342.43078125 347.21819824 343.6115625 347.25670898 344.828125 347.29638672 C348.89793781 348.19918848 350.43901697 349.76740982 353 353 C353.69151325 357.30274909 353.51557405 359.20945312 351.125 362.875 C348.12340297 365.87659703 346.51917376 366.12500671 342.3984375 366.2109375 C341.44590088 366.23696045 340.49336426 366.2629834 339.51196289 366.28979492 C338.47676514 366.3179126 337.44156738 366.34603027 336.375 366.375 C296.2169222 367.83534848 255.45638335 376.67143805 224 403 C222.80503906 403.94939453 222.80503906 403.94939453 221.5859375 404.91796875 C200.93786183 422.02741661 187.3932274 449.74212818 184 476 C183.86465111 477.5775855 183.73635674 479.15578457 183.61328125 480.734375 C183.54189941 481.57983887 183.47051758 482.42530273 183.39697266 483.29638672 C183.25988425 484.98394822 183.14286344 486.67328962 183.04833984 488.36376953 C182.70292316 492.62332567 182.34070054 494.56155287 179.64453125 498.03125 C177 500 177 500 173.5 500.625 C169.00265276 499.82190228 167.80481462 498.57357611 165 495 C164.1990723 492.16550089 164.03638552 489.37005292 163.875 486.4375 C163.73463077 484.81332059 163.5887903 483.1896048 163.4375 481.56640625 C163.33115234 480.38715576 163.33115234 480.38715576 163.22265625 479.18408203 C162.08223828 467.99748211 157.21342591 458.75814636 152 449 C148.94914422 449 147.5117636 450.77785252 145.125 452.625 C133.15177448 461.45642614 120.81390643 466.06810567 106 467 C105.97421875 467.64324219 105.9484375 468.28648437 105.921875 468.94921875 C104.83554461 486.25643695 97.30893478 499.4727937 87 513 C87.72445313 513.28101563 88.44890625 513.56203125 89.1953125 513.8515625 C91.81948293 514.92608354 94.32873356 516.12962981 96.875 517.375 C107.22199303 522.06934046 117.63086759 524.4041081 128.9765625 524.62890625 C133.33851081 525.1642875 135.93478276 526.93478276 139 530 C139.79054656 536.88904862 139.79054656 536.88904862 137.08203125 540.6953125 C132.84352251 543.86479306 129.41932672 543.84062448 124.25 544.0625 C98.6873138 545.85901213 76.03484665 554.79741657 56 571 C55.19691406 571.64839844 54.39382813 572.29679688 53.56640625 572.96484375 C22.27915838 599.48037964 9.83766991 642.80155348 6.52172852 682.14599609 C6.19230593 686.49437429 5.95496978 690.83712636 5.8046875 695.1953125 C5.7727832 696.01717041 5.74087891 696.83902832 5.70800781 697.68579102 C5.65453008 699.21698431 5.61865452 700.74894444 5.60449219 702.28100586 C5.45209372 707.09463653 4.50525322 709.67095341 1 713 C-2.91908586 714.14009771 -5.03158504 714.40888632 -8.8125 712.8125 C-11.67676251 710.43925392 -12.82900821 708.43503817 -13.27124023 704.72363281 C-13.28973022 703.47598145 -13.28973022 703.47598145 -13.30859375 702.203125 C-13.34291504 700.78350464 -13.34291504 700.78350464 -13.37792969 699.33520508 C-13.39758789 698.3170874 -13.41724609 697.29896973 -13.4375 696.25 C-14.89717723 650.41265947 -27.10282426 607.07108105 -60.08203125 573.90625 C-81.40829363 553.96480985 -110.20781417 544.25814766 -139.00390625 543.5390625 C-142.60045451 542.89196516 -143.75560604 541.82001501 -146 539 C-147.42662219 536.14675563 -147.31033868 534.16545451 -147 531 C-144.11191733 526.35843857 -144.11191733 526.35843857 -141.10131836 525.38793945 C-138.385977 524.88664081 -135.65695248 524.65308233 -132.90869141 524.40527344 C-119.32892494 523.1447998 -108.03611139 519.50600615 -96 513 C-96 509.14687263 -97.10560167 508.46522059 -99.625 505.625 C-108.71614612 494.57080994 -112.84499044 481.09111665 -114 467 C-115.28970703 466.87044922 -115.28970703 466.87044922 -116.60546875 466.73828125 C-133.05369045 464.78314912 -146.07966043 458.17747419 -159 448 C-166.39314454 461.65578396 -171.31539528 474.15347919 -171.62890625 489.9765625 C-172.04974386 493.40528152 -172.94608272 495.24533447 -175 498 C-178.48804095 500.32536063 -179.90140754 500.33457898 -184 500 C-186.61392422 499.12869193 -187.66116309 498.56669668 -189.07861328 496.19604492 C-190.05097859 493.87849697 -190.33284212 492.11264307 -190.4921875 489.61328125 C-190.55486816 488.76620605 -190.61754883 487.91913086 -190.68212891 487.04638672 C-190.74577637 486.1442041 -190.80942383 485.24202148 -190.875 484.3125 C-193.5326316 453.29969677 -206.44130225 424.92714109 -230 404 C-262.75588528 377.01031346 -304.20634344 367.31905281 -345.921875 366.5703125 C-355.14111647 366.27686184 -355.14111647 366.27686184 -359 363 C-360.7299548 360.09053057 -361.00663338 358.3250358 -360.9375 354.9375 C-359.72772347 351.14686687 -358.31117088 350.15684891 -355 348 C-351.89160156 347.42578125 -351.89160156 347.42578125 -348.390625 347.3125 C-347.0910083 347.25610352 -345.7913916 347.19970703 -344.45239258 347.14160156 C-343.76722565 347.11908325 -343.08205872 347.09656494 -342.37612915 347.07336426 C-338.75720386 346.94848954 -335.14262786 346.74962705 -331.52734375 346.546875 C-330.80056931 346.50641052 -330.07379486 346.46594604 -329.32499695 346.42425537 C-289.72716852 344.06760918 -246.73816537 329.92570157 -219.67919922 299.515625 C-202.01260165 278.62432933 -191.7932905 252.80451917 -190.6875 225.5 C-190.40201065 221.22717612 -190.20315843 219.33244107 -187.9375 215.625 C-183.80582103 213.33939036 -181.69334171 213.32952261 -177 214 C-174.03141843 216.20740681 -173.17134209 217.48597373 -172 221 C-171.80892261 223.08523582 -171.62093081 225.17084916 -171.45581055 227.25830078 C-170.40561202 239.97280399 -167.72540141 251.36665926 -160.91796875 262.36328125 C-160 264 -160 264 -160 266 C-157.21818735 264.1698601 -154.46390589 262.34710689 -151.796875 260.3515625 C-140.98606549 252.36551289 -127.64011538 246.61775488 -114 247 C-113.87044922 245.71029297 -113.87044922 245.71029297 -113.73828125 244.39453125 C-111.85844733 228.57978167 -105.87316172 213.86163097 -95 202 C-108.25211811 192.90540914 -123.76608423 188.99479874 -139.73046875 188.40625 C-142.58427437 187.89541388 -143.94136864 187.03130439 -146 185 C-146.78515625 182.9140625 -146.78515625 182.9140625 -147.0625 180.625 C-147.17722656 179.87476563 -147.29195312 179.12453125 -147.41015625 178.3515625 C-146.72905299 174.44657048 -145.21291697 173.29051138 -142 171 C-138.077756 170.04638324 -134.1424114 169.75385262 -130.125 169.4375 C-105.02517721 166.92751772 -82.21236707 158.62301311 -63 142 C-62.21496094 141.3709375 -61.42992187 140.741875 -60.62109375 140.09375 C-29.57364482 114.1793464 -18.23907016 71.72180052 -14.26416016 33.1328125 C-13.73883433 26.90270062 -13.53884162 20.64868787 -13.46606445 14.39770508 C-13.27980687 5.92184453 -13.27980687 5.92184453 -10 2 C-6.24952518 -0.50031654 -4.44143734 -0.53603554 0 0 Z M-4 79 C-4.21503174 79.61705811 -4.43006348 80.23411621 -4.65161133 80.86987305 C-19.23336023 122.27346918 -41.0890064 154.67002968 -81 175 C-84.92958395 176.84104153 -88.93973294 178.46970995 -93 180 C-93 180.66 -93 181.32 -93 182 C-85.99271086 187.72615376 -85.99271086 187.72615376 -77.58984375 189.99609375 C-75.27884507 189.17104562 -73.18827843 188.11025583 -71 187 C-68.7829137 186.25471585 -66.55250689 185.54826761 -64.3125 184.875 C-63.25675781 184.54242188 -62.20101563 184.20984375 -61.11328125 183.8671875 C-55.46119765 182.29283046 -50.09846173 181.83578618 -44.25 181.875 C-43.20199219 181.87790039 -43.20199219 181.87790039 -42.1328125 181.88085938 C-36.71452121 181.92584519 -31.37316986 182.27668867 -26 183 C-17.12859258 164.0869144 -13.4770584 143.05276613 -12.2109375 122.3125 C-12.00563664 120.06179428 -11.80309494 118.11639138 -11 116 C-7.37296974 114.79098991 -3.75982637 114.21339525 0 115 C2.75476429 117.17692613 3.8745093 118.49276272 4.72607422 121.93481445 C4.88873779 123.63190552 4.88873779 123.63190552 5.0546875 125.36328125 C5.25964844 127.26654175 5.25964844 127.26654175 5.46875 129.20825195 C5.53449219 129.87813141 5.60023438 130.54801086 5.66796875 131.2381897 C6.7363823 141.94295638 8.21435957 152.40092815 11 162.8125 C11.23702637 163.70428955 11.47405273 164.5960791 11.71826172 165.51489258 C13.40047214 171.51911613 15.58339748 177.25520221 18 183 C19.299375 182.835 20.59875 182.67 21.9375 182.5 C38.07434119 180.97507989 53.60417822 181.50904788 68.203125 189.36328125 C70.6414268 190.22728819 71.590133 189.96045424 74 189 C76.11870889 187.70187914 78.19985414 186.34140423 80.25 184.9375 C81.32765625 184.20402344 82.4053125 183.47054687 83.515625 182.71484375 C84.33546875 182.14894531 85.1553125 181.58304687 86 181 C83.50863146 179.33908764 81.27991681 178.15149076 78.5703125 176.93359375 C67.97610125 172.09248492 58.18733758 167.24136749 49 160 C48.4323291 159.55430664 47.8646582 159.10861328 47.27978516 158.64941406 C22.07044778 138.62760727 5.36924194 109.9174423 -3 79 C-3.33 79 -3.66 79 -4 79 Z M-4 175 C-4.81381795 176.93694678 -5.62600916 178.87457711 -6.4375 180.8125 C-6.88996094 181.89144531 -7.34242188 182.97039062 -7.80859375 184.08203125 C-8.60375013 186.0295126 -9.33479648 188.00438943 -10 190 C-6.73951605 192.39851651 -6.73951605 192.39851651 -2.875 192.8125 C-0.73199639 191.9499868 -0.73199639 191.9499868 2 190 C1.80664062 189.41992188 1.61328125 188.83984375 1.4140625 188.2421875 C-0.05729167 183.828125 -1.52864583 179.4140625 -3 175 C-3.33 175 -3.66 175 -4 175 Z M-66 203 C-66 206.64507938 -64.92631539 208.99830127 -63.5625 212.375 C-61.99876413 216.25092652 -60.67307585 219.86870685 -60 224 C-54.5587879 222.51413054 -51.33313972 218.77645311 -47.5 214.875 C-46.84902344 214.235625 -46.19804687 213.59625 -45.52734375 212.9375 C-41.27271138 208.65708198 -37.96216334 204.25696871 -35 199 C-46.18842453 198.54794244 -55.45074289 198.82502899 -66 203 Z M28 199 C29.46292434 203.71289397 32.23769478 206.85695207 35.5625 210.375 C36.09391602 210.94500732 36.62533203 211.51501465 37.17285156 212.10229492 C41.41750409 216.57165686 45.93045516 220.47948275 51 224 C52.9989632 221.00155519 53.91035455 218.53865487 55 215.125 C56.20992923 211.35342372 57.48684966 207.66128342 59 204 C57.58521865 203.35004703 56.16808513 202.70521278 54.75 202.0625 C53.96109375 201.70285156 53.1721875 201.34320313 52.359375 200.97265625 C48.73042836 199.47661699 45.59441077 198.87432564 41.671875 198.90234375 C40.47304688 198.90717773 40.47304688 198.90717773 39.25 198.91210938 C38.0125 198.92467773 38.0125 198.92467773 36.75 198.9375 C35.90953125 198.94201172 35.0690625 198.94652344 34.203125 198.95117188 C32.13538599 198.96292039 30.06768376 198.98085478 28 199 Z M-82 215 C-89.87259687 223.23044219 -95.76874054 234.19996894 -96.07421875 245.82421875 C-96.04972656 246.54222656 -96.02523437 247.26023437 -96 248 C-94.97261719 248.36351562 -93.94523437 248.72703125 -92.88671875 249.1015625 C-81.62150623 253.15349306 -71.515382 257.46338296 -62.375 265.375 C-61.85325195 265.80901123 -61.33150391 266.24302246 -60.79394531 266.69018555 C-57.90843347 269.32879576 -56.65818215 271.40584026 -56.1484375 275.19921875 C-55.93077776 280.77245367 -55.93077776 280.77245367 -57 283 C-60.77202694 284.25734231 -64.108396 284.87687911 -68 284 C-69.92114112 282.50479317 -71.40547026 280.83261594 -73.01953125 279.01171875 C-78.45540939 273.49006738 -85.80209665 269.71920793 -93 267 C-91.54860225 276.31863326 -85.33484488 283.1096021 -78.85546875 289.578125 C-76.65034433 292.45639267 -76.23375019 294.41096056 -76 298 C-76.8125 300.8125 -76.8125 300.8125 -78 303 C-81.31410939 304.65705469 -84.44451789 304.73496715 -88 304 C-100.13477253 296.94871326 -107.2272558 281.77581353 -110.8125 268.8125 C-111.2179794 267.21074435 -111.61757788 265.60741657 -112 264 C-124.92154478 265.53500621 -135.15910908 269.37679508 -145 278 C-144.505 279.485 -144.505 279.485 -144 281 C-136.27102782 284.86448609 -129.36447896 283.87289579 -121.25 282.25 C-117.42088476 281.95545267 -116.00406146 282.70277653 -113 285 C-112 286 -112 286 -111.5 289.25 C-111.73269625 303.72887756 -127.47859314 319.24679859 -137 329 C-138.94628143 330.77407958 -140.91102841 332.39309877 -143 334 C-142.34 334.33 -141.68 334.66 -141 335 C-139.03714762 334.29622388 -137.1036284 333.51002187 -135.1875 332.6875 C-119.77583633 326.57041188 -101.49606957 325.78846439 -85.84912109 331.83056641 C-75.69257283 336.26641522 -66.55627392 341.79604546 -59 350 C-58.38125 350.598125 -57.7625 351.19625 -57.125 351.8125 C-55.71223442 354.55954418 -55.58506828 356.76147709 -56.125 359.79296875 C-59.87601279 369.2542287 -72.01941628 375.96092111 -80.86962891 379.81396484 C-98.35147088 386.80939737 -118.24019242 387.78184223 -136 381 C-137.08152344 380.43925781 -138.16304687 379.87851562 -139.27734375 379.30078125 C-140.17582031 378.87152344 -141.07429687 378.44226563 -142 378 C-142.66 378.33 -143.32 378.66 -144 379 C-143.09121094 379.78310547 -143.09121094 379.78310547 -142.1640625 380.58203125 C-131.44907223 389.99473809 -122.99291439 399.5771037 -116 412 C-115.54367187 412.77730469 -115.08734375 413.55460938 -114.6171875 414.35546875 C-112.22012469 418.68862076 -111.24199757 422.07298421 -112 427 C-113.5 429.4375 -113.5 429.4375 -116 431 C-119.85825935 431.54341681 -123.28759918 431.23746694 -127 430 C-134.12106337 429.11168739 -139.59512137 431.00481667 -146 434 C-138.63504329 442.34695093 -128.76048808 446.67857491 -118 449 C-116.00089663 449.05988098 -113.99848678 449.07778541 -112 449 C-111.68869141 447.81857422 -111.68869141 447.81857422 -111.37109375 446.61328125 C-107.58833867 433.23910535 -101.15868716 419.20316131 -90 410.3125 C-85.78439338 408.4681721 -83.46259764 408.95872722 -79 410 C-76.33946492 412.66053508 -76.21516046 414.27055195 -76 418 C-77.35420872 421.97798812 -79.30112296 424.3831134 -82.3125 427.1875 C-87.51798981 432.13879392 -91.57157731 438.90771527 -93 446 C-84.86964985 443.98182798 -79.13309763 440.01902063 -73.16015625 434.2109375 C-70.08252589 431.26590346 -68.1203196 429.61940764 -63.75 429.5 C-60 430 -60 430 -57 432 C-55.87139385 435.85053862 -55.25296791 438.31020689 -56.89453125 442.0234375 C-65.53791859 454.6273395 -81.56200034 461.75997645 -96 465 C-95.70435737 478.65331423 -90.36492321 488.4556303 -82 499 C-77.3567748 493.03377365 -76.39215129 487.42140869 -77 480 C-77.495 478.515 -77.495 478.515 -78 477 C-78.56338028 469.90140845 -78.56338028 469.90140845 -76.4375 466.5 C-73.06863813 464.42685424 -70.9258723 464.68463642 -67 465 C-64.43486689 466.02262545 -62.25116634 467.02995848 -59.875 468.375 C-59.22756836 468.73295654 -58.58013672 469.09091309 -57.91308594 469.4597168 C-46.42866051 475.99719932 -37.08460697 484.48806831 -28 494 C-27.00324147 495.00323099 -26.00491392 496.00493818 -25 497 C-26.00204715 493.98487159 -27.00953386 490.97204599 -28.03515625 487.96484375 C-28.37417969 486.96582031 -28.71320313 485.96679688 -29.0625 484.9375 C-29.57490234 483.43509766 -29.57490234 483.43509766 -30.09765625 481.90234375 C-35.2931446 465.19131413 -32.47751646 446.26812975 -25.25 430.6875 C-22.1596803 424.88239312 -18.32574444 419.93080681 -14 415 C-13.175 413.989375 -12.35 412.97875 -11.5 411.9375 C-8.08460396 409.29056807 -5.30344983 408.49614119 -1 409 C10.52310456 414.65679679 17.93697695 429.21694314 22 441 C26.9241638 458.08492135 26.18594073 475.89128038 18.671875 492.14453125 C18.45015625 492.75683594 18.2284375 493.36914062 18 494 C18.33 494.66 18.66 495.32 19 496 C19.96486328 494.87464844 19.96486328 494.87464844 20.94921875 493.7265625 C29.84939014 483.55565464 39.66930631 475.72113807 51.3125 468.875 C51.95791748 468.48417236 52.60333496 468.09334473 53.26831055 467.69067383 C58.05815954 464.9950427 61.51449411 464.53502686 67 465 C68.9375 466.0625 68.9375 466.0625 70 468 C71.23777747 472.57025526 70.92360296 475.82074525 69.9375 480.4375 C68.59183814 487.0122774 69.57197023 492.12337755 73 498 C78.93315339 495.54490205 81.63646259 489.94644519 84.23828125 484.32421875 C86.35902587 479.11875467 88.15702283 474.42137007 88.0625 468.75 C88.0315625 466.89375 88.0315625 466.89375 88 465 C86.56720703 464.56300781 86.56720703 464.56300781 85.10546875 464.1171875 C70.96749374 459.69161018 60.3773627 453.62031099 50 443 C48.44225064 439.88450128 48.43519378 436.3955612 49 433 C50.52847384 430.90312495 51.50254497 430.1330403 54.015625 429.4609375 C59.97992228 429.23154145 59.97992228 429.23154145 62.7578125 431.32421875 C63.87448858 432.52451067 64.96840687 433.74623813 66.04296875 434.984375 C69.74123536 438.79336815 74.43275719 441.34918067 79 444 C79.70769531 444.41636719 80.41539062 444.83273437 81.14453125 445.26171875 C83.1739588 446.30009969 83.1739588 446.30009969 86 445 C82.53212309 437.77717028 79.19991998 431.89709179 73.5625 426.1875 C68.34361791 420.77093298 68.34361791 420.77093298 68.3125 416.5 C69 413 69 413 70 410 C71.39194606 409.74829734 72.7889827 409.5246731 74.1875 409.3125 C75.35345703 409.12107422 75.35345703 409.12107422 76.54296875 408.92578125 C80.70596879 409.05153165 83.16287037 411.24853713 86.17578125 413.953125 C95.57005089 424.05153551 101.25860009 435.78202794 105 449 C116.52469684 448.71383371 126.48836252 444.79020425 135.48828125 437.6484375 C137.33794139 436.00427179 137.33794139 436.00427179 137 433 C129.69927551 429.81422931 123.7449035 429.05236218 116 431 C112.53223099 431.3461113 109.20348069 431.65997328 106.0625 429.9375 C104.3950472 426.89685079 104.16693986 424.47095791 104 421 C104.948165 418.01657172 106.38998247 415.40025408 107.9375 412.6875 C108.35064453 411.93911865 108.76378906 411.1907373 109.18945312 410.41967773 C112.57096762 404.4392389 116.4045315 399.11388655 121 394 C121.76699219 393.12601563 122.53398438 392.25203125 123.32421875 391.3515625 C127.0919836 387.10426395 130.91978601 382.94859418 135 379 C134.40574219 379.18175781 133.81148437 379.36351562 133.19921875 379.55078125 C131.95591797 379.92783203 131.95591797 379.92783203 130.6875 380.3125 C129.88699219 380.55613281 129.08648438 380.79976562 128.26171875 381.05078125 C127.18535156 381.36402344 126.10898437 381.67726563 125 382 C124.20319824 382.25064209 123.40639648 382.50128418 122.58544922 382.75952148 C115.87218065 384.76679717 109.74439107 385.51315046 102.75 385.4375 C101.74855957 385.42920166 100.74711914 385.42090332 99.71533203 385.41235352 C81.84446242 385.00848394 66.08730184 378.29194095 53 366 C49.81231693 362.42778872 48.15339776 360.1007168 48.42578125 355.11328125 C50.3366954 348.08059718 58.07867333 342.68650338 64 339 C81.62050743 329.08314437 100.04837038 325.07428595 120 330 C123.44693283 331.18992113 126.8173917 332.48708456 130.1875 333.87890625 C132.46987342 334.78868566 134.60491921 335.48759089 137 336 C134.43053874 333.41178355 131.84797406 330.85561782 129.203125 328.34375 C122.02563245 321.48236151 116.25919685 314.47482006 111 306 C110.64470215 305.43571289 110.2894043 304.87142578 109.92333984 304.29003906 C103.41249781 293.80481471 103.41249781 293.80481471 103.75 288.375 C105 285 105 285 107.125 282.9375 C110.85061325 281.72262611 113.16373756 282.23274751 117 283 C124.66791137 284.48503311 130.96687218 283.51656391 138 280 C136.05690682 274.17072047 128.68486641 271.35660671 123.41015625 268.69140625 C118.48674852 266.45498311 114.21345604 264.8464424 108.75 264.9375 C107.5125 264.958125 106.275 264.97875 105 265 C104.67 266.155 104.34 267.31 104 268.5 C99.7534741 281.08082907 92.74839864 296.8191606 81 304 C77.93829239 304.58899401 75.07299212 304.51216535 72 304 C69.14547899 301.83748408 69.04820919 300.2506878 68.375 296.75 C69.14937311 292.10376131 70.87319531 290.37258709 74.0546875 287.04296875 C78.86710409 281.98896498 85 275.25453434 85 268 C76.34231847 269.21895155 69.09981584 275.33614214 63.33984375 281.6171875 C61.10555507 283.92312975 59.90346553 284.0071507 56.625 284.25 C53 284 53 284 50.5625 283.0625 C48.38935777 280.19395226 48.51716186 277.87352505 48.46875 274.3515625 C50.17992378 266.77710208 59.00619466 262.03868312 65 258 C72.618152 253.54298839 80.56840504 250.5414382 89 248 C88.42989889 240.47466529 86.49874272 234.24214052 83.125 227.5625 C82.61549805 226.55219727 82.61549805 226.55219727 82.09570312 225.52148438 C80.08327881 221.68446202 77.95485333 218.20830309 75 215 C74.34 215 73.68 215 73 215 C69.29439464 222.73343728 68.48705974 228.56255199 70.5703125 236.82421875 C71.22566181 240.14266936 70.90587124 242.76474556 70 246 C67.82557057 248.49656712 66.57991923 248.94049962 63.296875 249.27734375 C59.29416246 248.94062267 56.3819986 247.54839285 52.9375 245.625 C52.28483154 245.26631836 51.63216309 244.90763672 50.9597168 244.53808594 C39.01807655 237.78210767 29.44328288 228.847995 20 219 C19.00318638 217.99682374 18.00504616 216.99492825 17 216 C17.91989753 218.83635073 18.86250007 221.65005141 19.953125 224.42578125 C26.83757898 242.17636969 26.73283749 260.45874409 19.75 278.25 C15.57178672 287.52937516 9.52950342 299.23524829 0 304 C-3.88853423 304.53634955 -6.49512625 304.81008921 -9.98828125 302.9296875 C-21.84851409 293.47002283 -29.62153431 276.68829853 -32 262 C-32.30905034 258.45324694 -32.380643 254.93416825 -32.375 251.375 C-32.37483887 250.41585693 -32.37467773 249.45671387 -32.37451172 248.46850586 C-32.24114528 240.07975684 -30.65992867 232.93124715 -28 225 C-27.31268731 222.6720615 -26.65591578 220.33706928 -26 218 C-26.66 218.66 -27.32 219.32 -28 220 C-28.46664062 220.46148437 -28.93328125 220.92296875 -29.4140625 221.3984375 C-30.49238384 222.4873827 -31.54922884 223.59792894 -32.5859375 224.7265625 C-41.97681323 234.69155291 -54.83949152 244.71964045 -68 249 C-71.36586759 248.76727231 -73.96962214 248.56504592 -76.9375 246.9375 C-79.31868171 242.59534512 -78.14577328 237.56532919 -77 233 C-76.19340769 226.08446268 -77.77378807 221.09235556 -81 215 C-81.33 215 -81.66 215 -82 215 Z M-25 215 C-24 217 -24 217 -24 217 Z M-4 218 C-12.21725125 226.80419777 -15.93230757 239.14354181 -16.375 251 C-15.90066712 262.74448209 -11.91768972 272.09394954 -6 282 C-4.68 282 -3.36 282 -2 282 C6.36154344 272.73959064 8.92273282 259.0622369 8.37890625 246.9921875 C7.53672911 236.08876564 3.70190606 226.61924926 -3 218 C-3.33 218 -3.66 218 -4 218 Z M-180 267 C-180.40089844 267.8971875 -180.80179687 268.794375 -181.21484375 269.71875 C-187.41140851 283.40012735 -194.00140646 296.66697134 -204 308 C-204.69738281 308.81726563 -205.39476562 309.63453125 -206.11328125 310.4765625 C-226.44567093 333.8064448 -252.08905911 346.45523961 -281 356 C-280.20339634 358.12641869 -280.20339634 358.12641869 -278.30444336 358.74267578 C-277.57362549 358.9745459 -276.84280762 359.20641602 -276.08984375 359.4453125 C-275.27257812 359.7134375 -274.4553125 359.9815625 -273.61328125 360.2578125 C-272.73027344 360.54398437 -271.84726562 360.83015625 -270.9375 361.125 C-261.47751184 364.31436744 -252.75611131 368.23213416 -244 373 C-242.95585937 373.55300781 -241.91171875 374.10601562 -240.8359375 374.67578125 C-211.89088432 390.67575128 -192.1487623 416.72013034 -180 447 C-179.58878906 446.44054687 -179.17757812 445.88109375 -178.75390625 445.3046875 C-177 443 -177 443 -174.96484375 440.6953125 C-172.6886343 437.80948241 -171.16149231 435.5015577 -170 432 C-171.17848106 426.90080309 -173.59258321 422.60047456 -176 418 C-180.41850189 405.50844092 -179.19354848 391.78059237 -177 379 C-195.31688665 371.42436273 -214.27516314 367.04329042 -234.07617188 365.71948242 C-238.46477844 365.38437955 -241.47889399 364.70130652 -245 362 C-246.93377068 358.13245863 -246.09960353 354.0318796 -245 350 C-239.31525489 348.98058368 -233.63155698 348.06670792 -227.90234375 347.33984375 C-210.36213808 345.11231852 -194.41329273 341.62717068 -178 335 C-178.0407666 334.4423999 -178.0815332 333.8847998 -178.12353516 333.31030273 C-179.33348986 315.9372806 -179.7922808 299.17215686 -170.57421875 283.58984375 C-169.66297497 280.75380869 -169.66297497 280.75380869 -171.73828125 277.44921875 C-172.57772225 276.18276353 -173.43664019 274.92904726 -174.3125 273.6875 C-174.74240234 273.04232422 -175.17230469 272.39714844 -175.61523438 271.73242188 C-176.70160571 270.12581638 -177.84615356 268.55885288 -179 267 C-179.33 267 -179.66 267 -180 267 Z M172 267 C170.62390448 268.88619989 169.29940625 270.8101721 168 272.75 C167.278125 273.81734375 166.55625 274.8846875 165.8125 275.984375 C163.72861843 279.30240898 163.72861843 279.30240898 163 283 C163.87278481 285.39269403 163.87278481 285.39269403 165.25 287.875 C172.3419169 302.80951024 172.04196907 318.9194936 170 335 C183.21820343 340.66839016 196.76217163 344.31578764 211.0390625 346.0625 C211.73595184 346.14789536 212.43284119 346.23329071 213.15084839 346.3212738 C216.64449295 346.74109375 220.13894222 347.12948788 223.64013672 347.48071289 C224.9242041 347.6224292 226.20827148 347.76414551 227.53125 347.91015625 C228.68173828 348.02496338 229.83222656 348.13977051 231.01757812 348.25805664 C234.48648795 349.12102463 235.80611622 350.22299028 238 353 C238.70882303 355.90784881 238.33971789 357.942539 238 361 C236.45661909 363.17476401 235.36334727 363.81832637 233 365 C231.30180009 365.23213858 229.59703075 365.4170328 227.890625 365.578125 C207.74121691 367.60646486 188.55360851 370.5901868 170 379 C170.165 380.299375 170.33 381.59875 170.5 382.9375 C172.01168473 398.93428319 171.66810031 414.74806744 163.5390625 429.10546875 C162.72642463 431.96147865 163.6782548 433.38760948 165 436 C166.16974302 437.96103977 167.37975599 439.89851383 168.625 441.8125 C169.25664063 442.78832031 169.88828125 443.76414062 170.5390625 444.76953125 C171.26222656 445.87361328 171.26222656 445.87361328 172 447 C173.77560306 444.33659541 174.95060789 441.80799683 176.1550293 438.86083984 C182.57929776 423.28741817 191.63532402 410.35758072 203 398 C203.61359375 397.31550781 204.2271875 396.63101563 204.859375 395.92578125 C223.21854363 376.43052545 249.27871236 365.68365757 274 357 C271.38401356 355.64094179 268.80176688 354.51429932 266.015625 353.5546875 C245.69395532 346.41063578 227.48942067 337.02161621 211 323 C210.24203125 322.37609375 209.4840625 321.7521875 208.703125 321.109375 C202.68169598 316.00154211 197.79504635 310.25749116 193 304 C192.41605469 303.25492187 191.83210937 302.50984375 191.23046875 301.7421875 C187.15774275 296.26737551 183.93972424 290.3903379 180.75 284.375 C180.32533447 283.57513672 179.90066895 282.77527344 179.46313477 281.95117188 C176.92523974 277.06598868 174.82986239 272.19253158 173 267 C172.67 267 172.34 267 172 267 Z M-157 294 C-157.65043719 295.72744016 -158.29514844 297.4570369 -158.9375 299.1875 C-159.29714844 300.15042969 -159.65679687 301.11335938 -160.02734375 302.10546875 C-161.68755729 307.04610422 -162.15778584 311.47563703 -162.1875 316.6875 C-162.20167969 317.82574219 -162.21585938 318.96398437 -162.23046875 320.13671875 C-162.30071071 323.13135255 -162.30071071 323.13135255 -160 325 C-154.4639671 321.02971378 -149.45234966 316.66691957 -144.625 311.875 C-144.11356445 311.37258789 -143.60212891 310.87017578 -143.07519531 310.35253906 C-140.19760618 307.45206652 -137.9375112 304.59823509 -136 301 C-137.09699219 300.66226562 -138.19398438 300.32453125 -139.32421875 299.9765625 C-140.77867907 299.52614898 -142.23310431 299.07562216 -143.6875 298.625 C-144.40873047 298.40328125 -145.12996094 298.1815625 -145.87304688 297.953125 C-149.6528973 296.77947281 -153.34920274 295.54096768 -157 294 Z M148 294 C145.30776192 294.93249677 145.30776192 294.93249677 142.3125 296.3125 C137.90061974 298.22378387 133.65931404 299.83517149 129 301 C133.47848176 310.59674663 142.93345613 319.61460928 152 325 C152.66 325 153.32 325 154 325 C154.66713715 309.57636855 154.66713715 309.57636855 150 295 C149.34 294.67 148.68 294.34 148 294 Z M-141 355 C-141 356.32 -141 357.64 -141 359 C-128.63062445 365.85829388 -128.63062445 365.85829388 -115 369 C-113.75089844 369.11988281 -113.75089844 369.11988281 -112.4765625 369.2421875 C-100.74434474 369.82707812 -88.26986395 366.31831365 -79 359 C-78.34 358.01 -77.68 357.02 -77 356 C-94.81738097 342.80194002 -123.19012837 338.9188518 -141 355 Z M71 355 C71 356.32 71 357.64 71 359 C83.36760029 365.86590716 83.36760029 365.86590716 97 369 C97.86753906 369.06832031 98.73507812 369.13664062 99.62890625 369.20703125 C111.1983898 369.65137841 122.26324176 366.23213477 132 360 C133.81262659 357.93572586 133.81262659 357.93572586 135 356 C117.18261903 342.80194002 88.80987163 338.9188518 71 355 Z M-179.125 353.5 C-179.78371094 353.73847656 -180.44242188 353.97695313 -181.12109375 354.22265625 C-182.74842576 354.8122693 -184.3743492 355.40576733 -186 356 C-184.5563573 358.8872854 -182.73518049 359.08202541 -179.75 360.1875 C-178.79609375 360.55230469 -177.8421875 360.91710937 -176.859375 361.29296875 C-173.75692302 362.0601051 -172.01219864 362.01635374 -169 361 C-167.32221688 358.80581563 -167.32221688 358.80581563 -167 356 C-168.1191794 353.16140195 -168.1191794 353.16140195 -170 351 C-173.23216123 351 -176.12126134 352.39962049 -179.125 353.5 Z M163 351 C159.70284318 354.5097293 159.70284318 354.5097293 160.125 357.5625 C161.05238765 360.14593702 162.0305174 361.16359055 164 363 C166.14898232 362.2169216 168.29412095 361.42328757 170.4375 360.625 C171.63246094 360.18414062 172.82742188 359.74328125 174.05859375 359.2890625 C177.10196898 358.32914764 177.10196898 358.32914764 178 356 C173.05 354.35 168.1 352.7 163 351 Z M137.0625 401.75 C131.52553698 406.60204419 131.52553698 406.60204419 129 413 C129.68964844 413.17015625 130.37929688 413.3403125 131.08984375 413.515625 C137.37734748 415.13709372 143.16109729 417.15984239 149 420 C149.65239158 418.60721983 150.29660552 417.21060788 150.9375 415.8125 C151.29714844 415.03519531 151.65679688 414.25789063 152.02734375 413.45703125 C154.22879254 407.89594173 154.12297681 402.58166275 154.0625 396.6875 C154.05798828 395.85154297 154.05347656 395.01558594 154.04882812 394.15429688 C154.03710548 392.10283351 154.01917203 390.05140727 154 388 C148.65156672 388 140.87252458 397.94061749 137.0625 401.75 Z M-161 389 C-162.86898409 390.86898409 -162.21746228 393.87501818 -162.25 396.375 C-162.19748933 404.96049393 -160.23139353 412.11820968 -157 420 C-156.23816406 419.66226562 -155.47632813 419.32453125 -154.69140625 418.9765625 C-148.48098285 416.2939077 -142.65525548 414.22013017 -136 413 C-141.76028459 403.48300807 -149.79371343 395.23034138 -159 389 C-159.66 389 -160.32 389 -161 389 Z M-4 430 C-12.21725125 438.80419777 -15.93230757 451.14354181 -16.375 463 C-15.91289066 474.44182735 -12.31986589 484.50583784 -6 494 C-5.01 494.66 -4.02 495.32 -3 496 C5.90727827 481.50716005 10.34807358 468.4175633 7.34375 451.25 C5.31752438 443.28483722 2.05581697 436.50223179 -3 430 C-3.33 430 -3.66 430 -4 430 Z M-60 489 C-60.17015625 489.76183594 -60.3403125 490.52367187 -60.515625 491.30859375 C-62.06563881 497.91264197 -63.97721166 503.92373512 -67 510 C-65.27255984 510.65043719 -63.5429631 511.29514844 -61.8125 511.9375 C-60.84957031 512.29714844 -59.88664062 512.65679688 -58.89453125 513.02734375 C-53.70016303 514.77281971 -49.17194247 515.11375647 -43.6875 515.0625 C-42.43324219 515.05347656 -41.17898438 515.04445313 -39.88671875 515.03515625 C-38.93410156 515.02355469 -37.98148437 515.01195312 -37 515 C-37 508.44463058 -41.71950211 504.67765749 -46 500 C-52.35767419 493.61441983 -52.35767419 493.61441983 -60 489 Z M44.4375 494.875 C43.90535889 495.36806641 43.37321777 495.86113281 42.82495117 496.36914062 C33.90845972 504.15848961 33.90845972 504.15848961 28 514 C29.86104302 515.86104302 32.82036798 515.2173163 35.3125 515.25 C43.62571881 515.19905075 51.61459902 513.98742307 59 510 C58.72414063 509.33613281 58.44828125 508.67226563 58.1640625 507.98828125 C56.77696529 504.42744445 55.56948099 500.81608323 54.375 497.1875 C54.03082031 496.14819336 54.03082031 496.14819336 53.6796875 495.08789062 C53.11841567 493.39238197 52.55901687 491.69625347 52 490 C48.68116316 490 46.75492407 492.71163992 44.4375 494.875 Z M17 496 C18 498 18 498 18 498 Z M-4 520 C-6.87391821 521.17274994 -6.87391821 521.17274994 -9 523 C-8.39363767 528.76044212 -6.24341721 533.72014369 -4 539 C-2.08614468 536.12921701 -1.03567048 533.66588344 0.125 530.4375 C0.47820312 529.46683594 0.83140625 528.49617187 1.1953125 527.49609375 C2.10227623 525.11984429 2.10227623 525.11984429 2 523 C-0.69871355 521.1915405 -0.69871355 521.1915405 -4 520 Z M-82.73046875 524.1328125 C-83.54128906 524.79023437 -84.35210937 525.44765625 -85.1875 526.125 C-86.00605469 526.76695312 -86.82460938 527.40890625 -87.66796875 528.0703125 C-88.43753906 528.70710937 -89.20710938 529.34390625 -90 530 C-91.32871721 531.00612542 -92.66041077 532.00839602 -94 533 C-92.85144531 533.4846875 -91.70289063 533.969375 -90.51953125 534.46875 C-53.86886553 550.17787572 -26.73357878 576.9428818 -11.60620117 613.99536133 C-10.0246546 617.98011879 -8.49666674 621.98267737 -7 626 C-6.4258756 627.52868127 -5.85166272 629.05732932 -5.27734375 630.5859375 C-4.85582031 631.71257812 -4.43429687 632.83921875 -4 634 C-2.23939138 631.35908707 -1.36169757 629.44758342 -0.37109375 626.4921875 C13.12346935 587.23688115 37.14822027 556.50525147 74.73388672 538.07421875 C78.4569129 536.30937117 82.22119046 534.64145359 86 533 C84.38707631 531.6021328 82.69930848 530.29147445 81 529 C80.28328125 528.41347656 79.5665625 527.82695313 78.828125 527.22265625 C76.22485104 525.32823555 74.07329497 523.98205146 71 523 C67.89615008 523.71661759 65.55111245 524.94378224 62.765625 526.48046875 C49.49362789 533.77256886 32.56820143 532.36053605 18 531 C10.39752356 549.00036518 6.85630646 567.60291448 5.07543945 587.01538086 C4.97577881 588.01577393 4.87611816 589.01616699 4.7734375 590.046875 C4.69528809 590.93213867 4.61713867 591.81740234 4.53662109 592.72949219 C3.90985897 595.38139746 3.1098479 596.32336026 1 598 C-1.80915474 599.40457737 -3.88810534 599.24895157 -7 599 C-10.1359157 597.22015595 -10.84102736 596.47691793 -12 593 C-12.2254462 591.25652568 -12.41309419 589.50803921 -12.578125 587.7578125 C-14.61018838 567.53592737 -18.25187761 548.82447605 -26 530 C-26.81339844 530.15597656 -27.62679687 530.31195312 -28.46484375 530.47265625 C-44.17337371 533.14080926 -60.3635017 532.50261911 -74.83227539 525.05712891 C-78.67977024 523.08658241 -78.67977024 523.08658241 -82.73046875 524.1328125 Z " fill="#E6AE8F" transform="translate(500,126)"/>
<path d="M0 0 C1.58107544 0.01135986 1.58107544 0.01135986 3.1940918 0.02294922 C18.30991563 0.341226 32.17531576 4.99337842 43.40625 15.46484375 C55.47745293 28.38000791 57.75375724 41.88416959 57.52734375 58.89453125 C57.29882756 65.63973804 56.00678489 71.23257351 53.25 77.4375 C52.84910156 78.36304688 52.44820312 79.28859375 52.03515625 80.2421875 C43.40879619 97.89497069 26.11970008 110.50032062 7.94921875 117.0546875 C4.40798624 118.26640023 0.83995922 119.37833473 -2.75 120.4375 C-1.69941406 120.93378906 -0.64882812 121.43007813 0.43359375 121.94140625 C8.37698117 125.75782993 15.61229407 129.55265297 22.25 135.4375 C23.04535156 136.11425781 23.84070312 136.79101562 24.66015625 137.48828125 C44.72585403 154.94884979 59.31828311 177.79913248 74.14477539 199.63842773 C100.68867571 238.68924869 130.16007155 276.64841143 178.375 287.75 C192.79546184 290.16586321 207.6272928 290.93355292 220.25 282.4375 C223.44531008 279.60356428 226.3904288 276.60789416 229.25 273.4375 C230.57 274.0975 231.89 274.7575 233.25 275.4375 C227.70989833 287.50796306 215.22139083 295.69882446 203.25 300.4375 C177.61705347 307.87668611 146.91103914 299.38986367 124.22143555 286.98144531 C113.39617716 280.80445942 103.88755447 273.46158096 94.87109375 264.8828125 C92.30755837 262.42622864 92.30755837 262.42622864 89.61328125 260.34375 C87.46796057 258.61330952 85.7698796 256.91311468 84 254.8125 C82.14551208 252.63308043 80.29112585 250.48113352 78.328125 248.3984375 C61.00901597 229.97246812 47.1618747 207.89732073 33.22509766 186.88671875 C28.39258935 179.61543824 23.45082634 172.45022713 18.25 165.4375 C17.8375 164.87546875 17.425 164.3134375 17 163.734375 C7.21080561 150.48314845 -3.982487 137.19870092 -18.75 129.4375 C-19.41257812 129.04433594 -20.07515625 128.65117187 -20.7578125 128.24609375 C-28.9246636 123.90645326 -37.38141345 123.91675051 -46.75 122.4375 C-46.75 152.7975 -46.75 183.1575 -46.75 214.4375 C-39.16 214.4375 -31.57 214.4375 -23.75 214.4375 C-23.75 216.0875 -23.75 217.7375 -23.75 219.4375 C-47.51 219.4375 -71.27 219.4375 -95.75 219.4375 C-95.75 217.7875 -95.75 216.1375 -95.75 214.4375 C-88.16 214.4375 -80.57 214.4375 -72.75 214.4375 C-72.75 145.4675 -72.75 76.4975 -72.75 5.4375 C-80.34 5.4375 -87.93 5.4375 -95.75 5.4375 C-95.75 4.1175 -95.75 2.7975 -95.75 1.4375 C-79.58 1.4375 -63.41 1.4375 -46.75 1.4375 C-46.42 11.3375 -46.09 21.2375 -45.75 31.4375 C-44.203125 28.1890625 -44.203125 28.1890625 -42.625 24.875 C-37.38641165 14.31305651 -30.90983003 7.03336053 -19.57519531 2.58374023 C-13.01949656 0.38435426 -6.88215374 -0.06946658 0 0 Z M-32.875 18.5 C-49.11620243 38.59129674 -47.04370659 68.32243588 -46.875 92.5 C-46.86494582 95.02408497 -46.8558243 97.54817384 -46.84765625 100.07226562 C-46.82584599 106.19409685 -46.79256322 112.31577968 -46.75 118.4375 C-43.59321584 118.31868168 -40.43728468 118.18406975 -37.28125 118.046875 C-35.95722168 117.99732666 -35.95722168 117.99732666 -34.60644531 117.94677734 C-14.23447147 117.02759989 4.06947527 109.47372484 18.125 94.5 C29.79814035 80.74086525 35.46708748 63.53306478 34.25 45.4375 C32.69392906 33.27445011 28.49721429 20.18190601 19.08203125 11.765625 C2.4719321 -0.27581148 -19.27993335 4.30773404 -32.875 18.5 Z " fill="#000000" transform="translate(2027.75,265.5625)"/>
<path d="M0 0 C1.89190063 0.01027222 1.89190063 0.01027222 3.82202148 0.02075195 C24.43889156 0.37305303 44.51536094 5.90541551 60.0625 20.125 C68.13342508 28.82828622 70.41965439 37.26590885 70.3515625 48.7734375 C69.49646804 53.98174012 66.82349678 58.07243744 62.75 61.4375 C57.35080143 63.23723286 51.81442735 63.13862627 46.4375 61.3125 C42.66047703 58.67736769 39.83375265 55.6050053 37.75 51.4375 C37.39703636 43.87180105 40.06175758 38.08001808 43.5703125 31.515625 C44.96718137 27.87081483 44.85223952 26.15135208 43.75 22.4375 C40.90516268 16.5329585 36.53565728 14.15489258 30.75 11.4375 C10.87192446 4.54236074 -12.47132223 3.34635847 -32.125 11.75 C-42.33786743 16.85643371 -51.06751721 22.75991521 -55.125 33.9375 C-57.9523393 44.07026259 -57.89136273 53.09116056 -52.75 62.5 C-39.99530803 81.85818498 -14.43712303 89.31524461 6.25 97 C67.54671731 119.87525881 67.54671731 119.87525881 80.75 143.4375 C86.83280873 157.21654538 87.92895895 172.14121027 82.75 186.4375 C76.89748096 200.4603674 65.52184596 210.23875128 51.76757812 216.31298828 C49.67236717 217.17277802 47.56551345 217.97510823 45.4375 218.75 C44.81157959 218.98041992 44.18565918 219.21083984 43.54077148 219.44824219 C30.55451885 223.83986878 17.41403106 224.96508128 3.8125 224.8125 C2.69705811 224.80552094 2.69705811 224.80552094 1.55908203 224.79840088 C-22.83839973 224.61962397 -48.65644919 220.17126428 -67.01953125 202.80078125 C-73.26967927 196.1784703 -76.82174744 189.74783173 -77.5625 180.5625 C-77.37697217 174.60241833 -76.01481202 169.20231202 -71.75 164.9375 C-66.75251434 161.9390086 -61.93474939 161.81546055 -56.25 162.4375 C-51.49164838 164.08945603 -47.61499911 166.99130168 -45.25 171.4375 C-43.72147351 179.41242083 -46.11952686 184.78499824 -49.8984375 191.70703125 C-51.6330462 195.21134189 -52.03348392 197.5984288 -51.25 201.4375 C-44.75124281 211.17023588 -31.74896054 214.2026252 -20.94140625 216.7109375 C4.89469502 221.79613838 32.07949653 219.43086009 54.3046875 204.75 C61.64683579 198.98710625 65.56478139 190.93038352 67.25 181.875 C68.41194472 171.63536218 66.14587963 163.57649148 59.75 155.4375 C44.40780736 139.56114978 19.76857457 133.19513445 -0.2890625 125.86328125 C-57.70594326 104.85544367 -57.70594326 104.85544367 -70.34375 79.21875 C-75.31854292 66.13688713 -73.04551463 49.07034076 -68.06640625 36.43359375 C-61.45030291 21.75821439 -49.63420463 11.66856253 -34.875 5.625 C-23.33875236 1.63025345 -12.19108029 -0.10274999 0 0 Z " fill="#000000" transform="translate(1073.25,263.5625)"/>
<path d="M0 0 C1.65 0 3.3 0 5 0 C9.73642789 9.11813044 13.90616909 18.43450901 18.0010376 27.85293579 C19.97272182 32.38684588 21.95569794 36.91581808 23.9375 41.4453125 C24.3506546 42.39020035 24.7638092 43.3350882 25.18948364 44.30860901 C29.79293818 54.82844817 34.45611667 65.32157404 39.125 75.8125 C39.9739654 77.72094412 40.82292374 79.62939138 41.671875 81.5378418 C44.82904616 88.63388755 47.98845065 95.72893823 51.1484375 102.82373047 C53.14151099 107.29875958 55.13369645 111.77418302 57.125 116.25 C57.44387177 116.96661804 57.76274353 117.68323608 58.09127808 118.42156982 C63.88451784 131.44568875 69.61655663 144.49637872 75.33309937 157.55432129 C79.1592841 166.29382829 82.99497157 175.02784631 86.921875 183.72265625 C87.37673027 184.73077614 87.37673027 184.73077614 87.84077454 185.75926208 C89.23067139 188.83727257 90.62604718 191.91250295 92.0300293 194.98413086 C92.7557312 196.58526733 92.7557312 196.58526733 93.49609375 198.21875 C93.91044678 199.12560547 94.3247998 200.03246094 94.75170898 200.96679688 C96.37055735 204.90041161 97.65486079 208.96458238 99 213 C105.93 213 112.86 213 120 213 C120 214.65 120 216.3 120 218 C96.57 218 73.14 218 49 218 C49 216.35 49 214.7 49 213 C55.93 213 62.86 213 70 213 C68.44843316 209.36933361 66.88959072 205.7430721 65.3125 202.12353516 C64.52311881 200.30330942 63.74574699 198.47789026 62.96875 196.65234375 C58.27025585 185.90453839 52.53467454 176.21909821 44.4375 167.6875 C43.56996094 166.76324219 42.70242187 165.83898437 41.80859375 164.88671875 C40.87410604 163.9228182 39.93780062 162.96067765 39 162 C38.18885742 161.15489868 38.18885742 161.15489868 37.36132812 160.29272461 C33.37249487 156.20148444 29.20946554 152.59419328 24.625 149.1875 C23.93656006 148.67541992 23.24812012 148.16333984 22.53881836 147.63574219 C6.75771195 136.11251992 -10.57514632 127.31843633 -29.0625 121.0625 C-29.93100586 120.76770752 -30.79951172 120.47291504 -31.69433594 120.16918945 C-32.52868164 119.8980835 -33.36302734 119.62697754 -34.22265625 119.34765625 C-35.31719116 118.99199585 -35.31719116 118.99199585 -36.43383789 118.62915039 C-39.93526424 117.77069965 -43.4174725 117.40241701 -47 117 C-47.67035278 118.49889771 -47.67035278 118.49889771 -48.35424805 120.02807617 C-50.07684517 123.8796868 -51.79962305 127.73121656 -53.52243042 131.58273315 C-54.29960562 133.32027762 -55.07672551 135.05784682 -55.85379028 136.79544067 C-60.0669449 146.21646319 -64.28232656 155.63643361 -68.51591492 165.04829407 C-70.86004861 170.26090657 -73.19101665 175.47934387 -75.52001953 180.69873047 C-77.02051547 184.04576216 -78.53900858 187.38425504 -80.05859375 190.72265625 C-80.99800001 192.81483299 -81.9368325 194.90726748 -82.875 197 C-83.31062256 197.94415771 -83.74624512 198.88831543 -84.19506836 199.86108398 C-84.58186768 200.73192627 -84.96866699 201.60276855 -85.3671875 202.5 C-85.87934814 203.62921875 -85.87934814 203.62921875 -86.40185547 204.78125 C-87.29631817 207.44498617 -87.29631817 207.44498617 -86 212 C-80.72 212.33 -75.44 212.66 -70 213 C-70 214.65 -70 216.3 -70 218 C-84.85 218 -99.7 218 -115 218 C-115 216.35 -115 214.7 -115 213 C-113.55367187 212.94392578 -113.55367187 212.94392578 -112.078125 212.88671875 C-110.81484375 212.82097656 -109.5515625 212.75523437 -108.25 212.6875 C-106.37054687 212.60048828 -106.37054687 212.60048828 -104.453125 212.51171875 C-100.91288409 211.98709029 -99.62860798 211.29081957 -97 209 C-96.34 209 -95.68 209 -95 209 C-94.7210791 208.28529541 -94.4421582 207.57059082 -94.15478516 206.83422852 C-93.02476003 204.06076938 -91.79960534 201.36140597 -90.5234375 198.65234375 C-89.77682861 197.0595459 -89.77682861 197.0595459 -89.01513672 195.43457031 C-88.4738916 194.28053711 -87.93264648 193.12650391 -87.375 191.9375 C-82.07508922 180.59983653 -76.93831688 169.19510203 -71.875 157.75 C-65.69466094 143.78057086 -59.42042787 129.8611563 -53 116 C-68.38790194 110.87069935 -87.48901102 114.84787564 -102 121 C-104.74604325 122.47973315 -107.3588662 124.02977562 -109.94921875 125.765625 C-111.98892506 126.99333394 -113.67431498 127.55901232 -116 128 C-116.66 126.68 -117.32 125.36 -118 124 C-101.18564443 112.51460357 -84.73136874 108.43621556 -64.625 108.8125 C-63.19532689 108.82760218 -61.76563802 108.84128063 -60.3359375 108.85351562 C-56.89028802 108.88601887 -53.44525151 108.93748148 -50 109 C-41.82990612 91.23464313 -33.72105927 73.4460259 -25.8125 55.5625 C-20.89983718 44.45878068 -15.92836612 33.38673732 -10.8125 22.375 C-10.03773315 20.70546265 -10.03773315 20.70546265 -9.24731445 19.00219727 C-6.26640215 12.61537229 -3.18983677 6.28510798 0 0 Z M-10 34 C-19.29877223 54.27531559 -28.54736716 74.57053434 -37.62646484 94.9453125 C-39.41900382 98.93184782 -41.25941557 102.89584917 -43.1105957 106.85546875 C-44.12769721 108.92096194 -44.12769721 108.92096194 -44 111 C-43.39752441 111.17015625 -42.79504883 111.3403125 -42.17431641 111.515625 C-28.59617742 115.39141187 -15.67655746 119.76505486 -3 126 C-2.29182129 126.34256836 -1.58364258 126.68513672 -0.85400391 127.03808594 C14.48005569 134.52202769 28.26912784 143.896017 40.58203125 155.72265625 C42.63984939 157.66079514 44.69970153 159.36458966 47 161 C44.69196755 153.55170546 41.6766863 146.58680563 38.4375 139.5 C37.25740259 136.8971923 36.08153833 134.29248223 34.90625 131.6875 C34.59400986 130.99611938 34.28176971 130.30473877 33.96006775 129.59240723 C30.05259917 120.92428408 26.24916 112.21055381 22.4375 103.5 C14.78943283 86.02947236 7.05802081 68.59688339 -0.71508789 51.18164062 C-1.53011793 49.35286782 -2.34514108 47.52409194 -3.16015625 45.6953125 C-3.53531372 44.85666656 -3.91047119 44.01802063 -4.29699707 43.15396118 C-4.63992798 42.38401825 -4.98285889 41.61407532 -5.33618164 40.82080078 C-5.78435997 39.81715988 -5.78435997 39.81715988 -6.24159241 38.79324341 C-6.90450619 37.22579369 -7.46182221 35.61453336 -8 34 C-8.66 34 -9.32 34 -10 34 Z " fill="#000000" transform="translate(2244,267)"/>
<path d="M0 0 C1.65 0 3.3 0 5 0 C9.73642789 9.11813044 13.90616909 18.43450901 18.0010376 27.85293579 C19.97272182 32.38684588 21.95569794 36.91581808 23.9375 41.4453125 C24.3506546 42.39020035 24.7638092 43.3350882 25.18948364 44.30860901 C29.79293818 54.82844817 34.45611667 65.32157404 39.125 75.8125 C39.9739654 77.72094412 40.82292374 79.62939138 41.671875 81.5378418 C44.82904616 88.63388755 47.98845065 95.72893823 51.1484375 102.82373047 C53.14151099 107.29875958 55.13369645 111.77418302 57.125 116.25 C57.44387177 116.96661804 57.76274353 117.68323608 58.09127808 118.42156982 C63.88451784 131.44568875 69.61655663 144.49637872 75.33309937 157.55432129 C79.1592841 166.29382829 82.99497157 175.02784631 86.921875 183.72265625 C87.37673027 184.73077614 87.37673027 184.73077614 87.84077454 185.75926208 C89.23067139 188.83727257 90.62604718 191.91250295 92.0300293 194.98413086 C92.7557312 196.58526733 92.7557312 196.58526733 93.49609375 198.21875 C93.91044678 199.12560547 94.3247998 200.03246094 94.75170898 200.96679688 C96.37055735 204.90041161 97.65486079 208.96458238 99 213 C105.93 213 112.86 213 120 213 C120 214.65 120 216.3 120 218 C96.57 218 73.14 218 49 218 C49 216.35 49 214.7 49 213 C55.93 213 62.86 213 70 213 C68.44843316 209.36933361 66.88959072 205.7430721 65.3125 202.12353516 C64.52311881 200.30330942 63.74574699 198.47789026 62.96875 196.65234375 C58.27025585 185.90453839 52.53467454 176.21909821 44.4375 167.6875 C43.56996094 166.76324219 42.70242188 165.83898437 41.80859375 164.88671875 C40.87410604 163.9228182 39.93780062 162.96067765 39 162 C38.18885742 161.15489868 38.18885742 161.15489868 37.36132812 160.29272461 C33.37249487 156.20148444 29.20946554 152.59419328 24.625 149.1875 C23.93656006 148.67541992 23.24812012 148.16333984 22.53881836 147.63574219 C6.75771195 136.11251992 -10.57514632 127.31843633 -29.0625 121.0625 C-29.93100586 120.76770752 -30.79951172 120.47291504 -31.69433594 120.16918945 C-32.52868164 119.8980835 -33.36302734 119.62697754 -34.22265625 119.34765625 C-35.31719116 118.99199585 -35.31719116 118.99199585 -36.43383789 118.62915039 C-39.93526424 117.77069965 -43.4174725 117.40241701 -47 117 C-47.67035278 118.49889771 -47.67035278 118.49889771 -48.35424805 120.02807617 C-50.07684517 123.8796868 -51.79962305 127.73121656 -53.52243042 131.58273315 C-54.29960562 133.32027762 -55.07672551 135.05784682 -55.85379028 136.79544067 C-60.0669449 146.21646319 -64.28232656 155.63643361 -68.51591492 165.04829407 C-70.86004861 170.26090657 -73.19101665 175.47934387 -75.52001953 180.69873047 C-77.02051547 184.04576216 -78.53900858 187.38425504 -80.05859375 190.72265625 C-80.99800001 192.81483299 -81.9368325 194.90726748 -82.875 197 C-83.31062256 197.94415771 -83.74624512 198.88831543 -84.19506836 199.86108398 C-84.58186768 200.73192627 -84.96866699 201.60276855 -85.3671875 202.5 C-85.87934814 203.62921875 -85.87934814 203.62921875 -86.40185547 204.78125 C-87.29631817 207.44498617 -87.29631817 207.44498617 -86 212 C-80.72 212.33 -75.44 212.66 -70 213 C-70 214.65 -70 216.3 -70 218 C-84.85 218 -99.7 218 -115 218 C-115 216.35 -115 214.7 -115 213 C-113.55367187 212.94392578 -113.55367187 212.94392578 -112.078125 212.88671875 C-110.81484375 212.82097656 -109.5515625 212.75523437 -108.25 212.6875 C-106.37054687 212.60048828 -106.37054687 212.60048828 -104.453125 212.51171875 C-100.91288409 211.98709029 -99.62860798 211.29081957 -97 209 C-96.34 209 -95.68 209 -95 209 C-94.7210791 208.28529541 -94.4421582 207.57059082 -94.15478516 206.83422852 C-93.02476003 204.06076938 -91.79960534 201.36140597 -90.5234375 198.65234375 C-89.77682861 197.0595459 -89.77682861 197.0595459 -89.01513672 195.43457031 C-88.4738916 194.28053711 -87.93264648 193.12650391 -87.375 191.9375 C-82.07508922 180.59983653 -76.93831688 169.19510203 -71.875 157.75 C-65.69466094 143.78057086 -59.42042787 129.8611563 -53 116 C-68.38790194 110.87069935 -87.48901102 114.84787564 -102 121 C-104.74604325 122.47973315 -107.3588662 124.02977562 -109.94921875 125.765625 C-111.98892506 126.99333394 -113.67431498 127.55901232 -116 128 C-116.66 126.68 -117.32 125.36 -118 124 C-101.18564443 112.51460357 -84.73136874 108.43621556 -64.625 108.8125 C-63.19532689 108.82760218 -61.76563802 108.84128063 -60.3359375 108.85351562 C-56.89028802 108.88601887 -53.44525151 108.93748148 -50 109 C-41.82990612 91.23464313 -33.72105927 73.4460259 -25.8125 55.5625 C-20.89983718 44.45878068 -15.92836612 33.38673732 -10.8125 22.375 C-10.03773315 20.70546265 -10.03773315 20.70546265 -9.24731445 19.00219727 C-6.26640215 12.61537229 -3.18983677 6.28510798 0 0 Z M-10 34 C-19.29877223 54.27531559 -28.54736716 74.57053434 -37.62646484 94.9453125 C-39.41900382 98.93184782 -41.25941557 102.89584917 -43.1105957 106.85546875 C-44.12769721 108.92096194 -44.12769721 108.92096194 -44 111 C-43.39752441 111.17015625 -42.79504883 111.3403125 -42.17431641 111.515625 C-28.59617742 115.39141187 -15.67655746 119.76505486 -3 126 C-2.29182129 126.34256836 -1.58364258 126.68513672 -0.85400391 127.03808594 C14.48005569 134.52202769 28.26912784 143.896017 40.58203125 155.72265625 C42.63984939 157.66079514 44.69970153 159.36458966 47 161 C44.69196755 153.55170546 41.6766863 146.58680563 38.4375 139.5 C37.25740259 136.8971923 36.08153833 134.29248223 34.90625 131.6875 C34.59400986 130.99611938 34.28176971 130.30473877 33.96006775 129.59240723 C30.05259917 120.92428408 26.24916 112.21055381 22.4375 103.5 C14.78943283 86.02947236 7.05802081 68.59688339 -0.71508789 51.18164062 C-1.53011793 49.35286782 -2.34514108 47.52409194 -3.16015625 45.6953125 C-3.53531372 44.85666656 -3.91047119 44.01802063 -4.29699707 43.15396118 C-4.63992798 42.38401825 -4.98285889 41.61407532 -5.33618164 40.82080078 C-5.78435997 39.81715988 -5.78435997 39.81715988 -6.24159241 38.79324341 C-6.90450619 37.22579369 -7.46182221 35.61453336 -8 34 C-8.66 34 -9.32 34 -10 34 Z " fill="#000000" transform="translate(1283,267)"/>
<path d="M0 0 C48.51 0 97.02 0 147 0 C157 42 157 42 157 46 C155.35 45.67 153.7 45.34 152 45 C151.7666394 44.16976318 151.7666394 44.16976318 151.52856445 43.32275391 C146.30449709 22.10923826 146.30449709 22.10923826 131.9765625 6.796875 C127.01669777 4.79724574 121.70937537 4.85684449 116.43408203 4.79467773 C115.6899449 4.78464501 114.94580776 4.77461229 114.17912102 4.76427555 C111.7887157 4.73308594 109.39829367 4.7082007 107.0078125 4.68359375 C105.52465295 4.66517224 104.04149851 4.64633462 102.55834961 4.6270752 C97.08062682 4.55884733 91.60280633 4.49865409 86.125 4.4375 C73.87375 4.293125 61.6225 4.14875 49 4 C49 37.99 49 71.98 49 107 C60.240625 106.87625 71.48125 106.7525 83.0625 106.625 C86.60105713 106.59100098 90.13961426 106.55700195 93.78540039 106.52197266 C96.97998948 106.48202706 96.97998948 106.48202706 100.17454529 106.43954468 C101.58836501 106.42195422 103.00223454 106.40810792 104.41612244 106.39730835 C106.56807282 106.3801235 108.71956175 106.3507519 110.87133789 106.31884766 C112.0815712 106.30552399 113.2918045 106.29220032 114.53871155 106.2784729 C118.91873092 105.92608485 123.40946646 105.47390042 126.72460938 102.40185547 C130.335174 96.24089637 131.09125627 90.56087458 131.73828125 83.5390625 C132.00914278 81.25660271 132.26483206 79.17857889 133 77 C135.59375 75.4296875 135.59375 75.4296875 138 75 C137.9278125 76.19109375 137.855625 77.3821875 137.78125 78.609375 C136.72225755 97.4055488 136.08580632 116.42944202 137.77734375 135.203125 C138.11701684 139.46989572 138.08868931 143.72320439 138 148 C134.125 147.125 134.125 147.125 133 146 C132.78634891 143.90579626 132.57876125 141.81076298 132.40478516 139.71289062 C131.69116071 125.88107245 131.69116071 125.88107245 125.1796875 114.28125 C120.79677483 111.70491424 116.07703129 111.8583898 111.09838867 111.79467773 C110.41384519 111.78464501 109.7293017 111.77461229 109.02401447 111.76427555 C106.82203293 111.73305158 104.62003327 111.70818635 102.41796875 111.68359375 C101.05293208 111.66517542 99.68790099 111.64633795 98.32287598 111.6270752 C93.27781676 111.55880895 88.2326506 111.49864018 83.1875 111.4375 C71.905625 111.293125 60.62375 111.14875 49 111 C49 144.66 49 178.32 49 213 C64.489375 212.95875 79.97875 212.9175 95.9375 212.875 C100.81523193 212.87741699 105.69296387 212.87983398 110.71850586 212.88232422 C115.11856716 212.85576644 115.11856716 212.85576644 119.51856995 212.82131958 C121.46730733 212.80983131 123.41613589 212.80999705 125.36488342 212.8196106 C128.32998091 212.83191778 131.29267884 212.80639714 134.25756836 212.77294922 C135.54398554 212.79127965 135.54398554 212.79127965 136.85639095 212.80998039 C143.58157508 212.67165651 147.85128412 210.23977168 153 206 C159.37567613 199.0065258 161.49718661 188.89586935 164 180 C164.37961287 178.67040276 164.75979002 177.34096646 165.140625 176.01171875 C165.42421875 175.01785156 165.7078125 174.02398437 166 173 C167.98 172.67 169.96 172.34 172 172 C168.71175562 187.44045185 164.83269138 202.66923447 161 218 C107.87 218 54.74 218 0 218 C0 216.35 0 214.7 0 213 C7.59 213 15.18 213 23 213 C23 144.03 23 75.06 23 4 C15.41 4 7.82 4 0 4 C0 2.68 0 1.36 0 0 Z " fill="#000000" transform="translate(1741,267)"/>
<path d="M0 0 C48.51 0 97.02 0 147 0 C149.2504653 6.75139591 149.2504653 6.75139591 150.05322266 10.13769531 C150.23325836 10.89157532 150.41329407 11.64545532 150.5987854 12.42218018 C150.87859756 13.61312286 150.87859756 13.61312286 151.1640625 14.828125 C151.36099701 15.65834167 151.55793152 16.48855835 151.76083374 17.34393311 C152.17391792 19.08834912 152.58564824 20.83308624 152.99609375 22.578125 C153.62643931 25.25611482 154.26213689 27.93279461 154.8984375 30.609375 C155.2997975 32.30721645 155.70085006 34.00513061 156.1015625 35.703125 C156.2921524 36.50518372 156.48274231 37.30724243 156.67910767 38.13360596 C158 43.76954597 158 43.76954597 158 46 C155.1953125 45.6015625 155.1953125 45.6015625 152 44 C150.41304566 40.9462442 149.68077136 37.70774662 148.875 34.375 C146.81245236 26.34874319 144.64554143 18.59694217 139.125 12.1875 C138.67382812 11.64480469 138.22265625 11.10210937 137.7578125 10.54296875 C132.94327515 6.31687485 128.08283142 5.55563602 121.88330078 5.56762695 C121.07969053 5.55735316 120.27608028 5.54707937 119.44811821 5.53649426 C116.86377172 5.50676118 114.27980593 5.49708881 111.6953125 5.48828125 C110.09300419 5.47280516 108.4907081 5.4560065 106.88842773 5.43786621 C100.9674198 5.3800665 95.04618473 5.34781454 89.125 5.3125 C75.88375 5.209375 62.6425 5.10625 49 5 C49 43.61 49 82.22 49 122 C60.75625 121.896875 72.5125 121.79375 84.625 121.6875 C88.32928223 121.66260498 92.03356445 121.63770996 95.85009766 121.61206055 C99.1870806 121.57547162 99.1870806 121.57547162 102.52401733 121.5349884 C104.00370489 121.51889911 105.48346222 121.5085701 106.96322632 121.50288391 C109.21235138 121.49310073 111.4605734 121.46471445 113.70947266 121.43237305 C114.97522125 121.42126999 116.24096985 121.41016693 117.54507446 121.39872742 C121.86705027 120.89993512 125.56575202 119.7525221 128.390625 116.30078125 C130.91208262 110.46704521 131.73569945 104.78884035 132.22949219 98.49731445 C132.68174629 93.43879122 132.68174629 93.43879122 134.43359375 91.0234375 C136 90 136 90 138 90 C138.06212994 96.94244542 137.95281371 103.843163 137.59350586 110.77636719 C137.00573794 122.21530597 137.11906084 133.46247606 137.7421875 144.89453125 C138.07121354 150.93450918 138.10448413 156.95152974 138 163 C136.0625 162.625 136.0625 162.625 134 162 C132.87529136 159.75058272 132.76174164 158.21092942 132.5703125 155.7109375 C132.49683594 154.85113281 132.42335938 153.99132812 132.34765625 153.10546875 C132.20116816 151.30906223 132.06038352 149.51217994 131.92578125 147.71484375 C131.33526445 140.97894877 130.53564426 134.53564426 125.5625 129.5625 C121.129133 126.85922744 117.27221088 126.85954222 112.12011719 126.79467773 C111.42578205 126.78464501 110.73144691 126.77461229 110.01607132 126.76427555 C107.77637275 126.73298161 105.53665643 126.70815715 103.296875 126.68359375 C101.9109643 126.66518189 100.52505919 126.64634476 99.13916016 126.6270752 C94.00950617 126.55873075 88.87974525 126.49861191 83.75 126.4375 C72.2825 126.293125 60.815 126.14875 49 126 C49 154.71 49 183.42 49 213 C56.59 213 64.18 213 72 213 C72 214.65 72 216.3 72 218 C48.24 218 24.48 218 0 218 C0 216.35 0 214.7 0 213 C7.59 213 15.18 213 23 213 C23 144.36 23 75.72 23 5 C15.41 5 7.82 5 0 5 C0 3.35 0 1.7 0 0 Z " fill="#000000" transform="translate(1562,267)"/>
<path d="M0 0 C1.6025371 0.00138269 1.6025371 0.00138269 3.23744869 0.00279331 C4.45887569 0.00141865 5.6803027 0.00004398 6.93874264 -0.00137234 C8.3046639 0.00216727 9.67058492 0.00580208 11.0365057 0.00952244 C12.46520644 0.00980431 13.89390733 0.00964659 15.32260799 0.00907993 C19.21293315 0.00879194 23.10322774 0.01468896 26.99354577 0.02165389 C31.05481548 0.02788713 35.11608582 0.0284912 39.17735958 0.0296793 C46.87322276 0.0327927 54.56907181 0.04100622 62.26492876 0.05102879 C71.02415457 0.06218964 79.78338105 0.0677003 88.5426122 0.07272422 C106.56589397 0.08318882 124.58916257 0.10078844 142.61243343 0.12304783 C143.25703465 2.36633319 143.90066793 4.60989669 144.54389095 6.85357761 C145.08168116 8.7276095 145.08168116 8.7276095 145.63033581 10.63950062 C146.69244696 14.40685963 147.6476689 18.17039745 148.53430843 21.98242283 C148.68402096 22.62375156 148.83373348 23.2650803 148.98798275 23.92584324 C149.29530421 25.24574588 149.60097271 26.56603457 149.9049139 27.8867197 C150.37197504 29.91447285 150.84537942 31.94067653 151.31946468 33.96679783 C153.61243343 43.85336439 153.61243343 43.85336439 153.61243343 46.12304783 C150.64243343 45.62804783 150.64243343 45.62804783 147.61243343 45.12304783 C147.38692806 44.25522678 147.38692806 44.25522678 147.15686703 43.369874 C142.27565367 22.59514384 142.27565367 22.59514384 128.61243343 7.12304783 C113.61243343 3.7897145 97.97273184 4.53819103 82.61243343 4.12304783 C82.61243343 73.09304783 82.61243343 142.06304783 82.61243343 213.12304783 C90.20243343 213.12304783 97.79243343 213.12304783 105.61243343 213.12304783 C105.61243343 214.77304783 105.61243343 216.42304783 105.61243343 218.12304783 C82.18243343 218.12304783 58.75243343 218.12304783 34.61243343 218.12304783 C34.61243343 216.47304783 34.61243343 214.82304783 34.61243343 213.12304783 C41.87243343 213.12304783 49.13243343 213.12304783 56.61243343 213.12304783 C56.61243343 144.15304783 56.61243343 75.18304783 56.61243343 4.12304783 C29.47419935 2.26244398 29.47419935 2.26244398 5.12024593 12.52929783 C-2.39887429 21.1003157 -4.77759467 34.28920222 -7.38756657 45.12304783 C-10.35756657 45.61804783 -10.35756657 45.61804783 -13.38756657 46.12304783 C-11.92670068 37.26586761 -9.93815083 28.5529907 -7.87365055 19.8217783 C-7.31817772 17.46886757 -6.76966691 15.11440069 -6.22155094 12.75976658 C-5.86975109 11.2635755 -5.51755271 9.76747805 -5.16491032 8.27148533 C-5.00135548 7.56744572 -4.83780064 6.86340611 -4.66928959 6.13803196 C-3.24738821 0.16736039 -3.24738821 0.16736039 0 0 Z " fill="#000000" transform="translate(1395.3875665664673,266.8769521713257)"/>
<path d="M0 0 C4.79279292 0.695728 6.1816543 2.36564189 9.57421875 5.61328125 C19.99641778 14.44295411 32.68495242 16.49583989 45.86181641 15.7578125 C56.41761944 14.73372295 66.34717785 9.78199928 74.125 2.6875 C76.875 0.5625 76.875 0.5625 80.0625 0.0625 C82.875 0.5625 82.875 0.5625 84.75 1.625 C86.64256573 4.88441875 86.48365308 6.84971622 85.875 10.5625 C84.33115819 12.62095575 82.60316353 14.40338901 80.82421875 16.26171875 C71.99145188 26.68756983 69.94297081 39.37361676 70.68408203 52.55371094 C71.66636984 62.889087 76.51737198 73.46272574 84.06640625 80.6484375 C85.875 82.5625 85.875 82.5625 86.3125 86.125 C85.875 89.5625 85.875 89.5625 84.75 91.5 C81.9917988 93.06298068 80.00734045 92.85495439 76.875 92.5625 C74.453125 90.98828125 74.453125 90.98828125 72.125 88.875 C61.32774733 79.70139434 49.04376644 76.02994955 34.92578125 76.703125 C24.43391146 77.99184599 14.94611857 82.7660703 6.9375 89.5625 C3.78865123 92.18262417 3.25345308 92.55048562 -1.0625 92.6875 C-4.125 91.5625 -4.125 91.5625 -6.125 88.5625 C-6.21926428 83.7550218 -5.16016517 81.30989076 -1.9375 77.9375 C6.04900568 69.441567 9.80241082 57.93099496 9.90234375 46.41015625 C9.28943047 33.19323139 5.0524976 22.05888635 -4.0625 12.4375 C-6.125 9.5625 -6.125 9.5625 -6.0625 5.8125 C-4.86024918 1.64469715 -4.29514933 0.77312688 0 0 Z " fill="#E6AE8F" transform="translate(456.125,436.4375)"/>
<path d="M0 0 C4.34753576 4.13124045 5.21804681 7.86789801 5.375 13.8125 C5.25817761 20.8437477 3.78972872 25.09717083 -1.125 30.125 C-3.67719983 32.32501455 -6.29703652 34.29471906 -9.125 36.125 C-8.25623464 40.58020695 -5.73571575 43.28958436 -2.8125 46.625 C-2.32587891 47.19347656 -1.83925781 47.76195312 -1.33789062 48.34765625 C1.30381655 51.41246322 4.00279709 54.25279709 6.875 57.125 C7.535 53.165 8.195 49.205 8.875 45.125 C11.845 45.125 14.815 45.125 17.875 45.125 C18.3381056 52.07158403 16.63335967 58.55209262 14.14257812 65.02978516 C13.64805808 67.20432483 13.64805808 67.20432483 15.04663086 69.1237793 C15.63839111 69.80867432 16.23015137 70.49356934 16.83984375 71.19921875 C17.79213867 72.32360352 17.79213867 72.32360352 18.76367188 73.47070312 C19.43978516 74.24349609 20.11589844 75.01628906 20.8125 75.8125 C22.13583393 77.35660105 23.45754299 78.90209668 24.77734375 80.44921875 C25.37023193 81.13072998 25.96312012 81.81224121 26.57397461 82.5144043 C27.875 84.125 27.875 84.125 27.875 85.125 C23.74621763 85.67414839 19.98208125 85.90754475 15.875 85.125 C12.8205896 82.52647175 10.83519415 79.6036544 8.875 76.125 C5.98743732 77.43695783 3.9132037 78.87982025 1.625 81.0625 C-4.29804443 86.2294111 -11.32882729 88.11242553 -19.125 88.125 C-27.98678595 87.42871682 -35.02724104 84.8617165 -41 78.125 C-46.06734293 70.97110411 -45.9399694 63.57587839 -45.125 55.125 C-42.8220366 46.77063277 -35.79674868 42.07661079 -29.125 37.125 C-28.35285156 36.54492188 -27.58070312 35.96484375 -26.78515625 35.3671875 C-26.23730469 34.95726562 -25.68945312 34.54734375 -25.125 34.125 C-25.69089844 33.36574219 -26.25679687 32.60648438 -26.83984375 31.82421875 C-27.57332031 30.83035156 -28.30679687 29.83648438 -29.0625 28.8125 C-29.79339844 27.82636719 -30.52429687 26.84023438 -31.27734375 25.82421875 C-35.0204176 20.35600726 -34.71495847 14.53975975 -34.125 8.125 C-32.85882502 4.04429892 -30.64934935 1.56593013 -27.375 -1.1875 C-18.61578367 -5.73555463 -8.07611282 -6.64298215 0 0 Z M-25.125 9.125 C-26.22753439 13.30437454 -25.65582795 16.9854244 -23.84765625 20.8671875 C-21.84253673 24.24990747 -19.91159406 27.33840594 -17.125 30.125 C-12.38347927 29.58950998 -9.21498084 26.54923358 -6.125 23.125 C-3.62297089 19.13327593 -2.73105103 15.53457861 -3.5625 10.875 C-4.56913295 7.73776357 -5.29308063 6.97219943 -7.875 4.625 C-14.86220608 1.40013566 -20.26676357 3.36607928 -25.125 9.125 Z M-31.125 49.125 C-34.64565339 53.23370179 -37.125 57.61850017 -37.125 63.125 C-36.06405845 69.23646537 -33.90981579 73.21840986 -28.94921875 76.97265625 C-24.18909821 79.97958464 -19.6778014 80.77282683 -14.125 80.125 C-7.02434965 77.59631053 -2.59739722 74.12742785 1.875 68.125 C-0.52995009 63.85400168 -3.38395361 60.12490672 -6.4375 56.3125 C-9.59827186 52.34214154 -12.7140952 48.36419129 -15.6875 44.25 C-16.491875 43.21875 -17.29625 42.1875 -18.125 41.125 C-22.90220635 41.125 -27.63319184 46.17233105 -31.125 49.125 Z " fill="#000000" transform="translate(1579.125,639.875)"/>
<path d="M0 0 C7.87875 -0.103125 15.7575 -0.20625 23.875 -0.3125 C26.34210449 -0.35802002 28.80920898 -0.40354004 31.35107422 -0.45043945 C33.33559821 -0.4650606 35.32013734 -0.4777974 37.3046875 -0.48828125 C38.31152588 -0.51386108 39.31836426 -0.53944092 40.35571289 -0.5657959 C48.12649462 -0.5705215 54.59255818 1.26199093 60.61813354 6.37236023 C66.60527242 12.90755504 67.58001142 20.25052696 67.34375 28.74609375 C66.54368953 36.31939339 64.01416282 41.92797931 58.07421875 46.74609375 C51.73987757 50.57532825 46.85634132 51.42753399 39.56640625 51.29296875 C38.68846909 51.28872391 37.81053192 51.28447906 36.9059906 51.28010559 C34.1245042 51.2634229 31.34376436 51.22579085 28.5625 51.1875 C26.66732823 51.17243968 24.77214502 51.15875364 22.87695312 51.14648438 C18.25078881 51.11611568 13.62622193 51.0573762 9 51 C9 63.54 9 76.08 9 89 C6.03 89 3.06 89 0 89 C0 59.63 0 30.26 0 0 Z M9 8 C9 19.55 9 31.1 9 43 C14.630625 43.061875 20.26125 43.12375 26.0625 43.1875 C28.7077771 43.22846802 28.7077771 43.22846802 31.40649414 43.27026367 C32.82437457 43.27903602 34.24226264 43.28667818 35.66015625 43.29296875 C36.74000793 43.3159906 36.74000793 43.3159906 37.8416748 43.33947754 C44.31713139 43.34278528 48.95841538 41.90547898 53.8125 37.375 C57.02222995 33.08118907 58.18438364 28.21184399 57.87890625 22.890625 C56.88887908 17.62408869 54.20925171 13.32782721 50 10 C45.2220066 8.01807074 40.85988853 7.73268354 35.7578125 7.8046875 C35.07581787 7.80670166 34.39382324 7.80871582 33.69116211 7.81079102 C31.16903862 7.82117243 28.64701181 7.84909442 26.125 7.875 C20.47375 7.91625 14.8225 7.9575 9 8 Z " fill="#000000" transform="translate(2054,636)"/>
<path d="M0 0 C7.87875 -0.103125 15.7575 -0.20625 23.875 -0.3125 C26.34210449 -0.35802002 28.80920898 -0.40354004 31.35107422 -0.45043945 C33.33559821 -0.4650606 35.32013734 -0.4777974 37.3046875 -0.48828125 C38.31152588 -0.51386108 39.31836426 -0.53944092 40.35571289 -0.5657959 C48.12649462 -0.5705215 54.59255818 1.26199093 60.61813354 6.37236023 C66.60527242 12.90755504 67.58001142 20.25052696 67.34375 28.74609375 C66.54368953 36.31939339 64.01416282 41.92797931 58.07421875 46.74609375 C51.73987757 50.57532825 46.85634132 51.42753399 39.56640625 51.29296875 C38.68846909 51.28872391 37.81053192 51.28447906 36.9059906 51.28010559 C34.1245042 51.2634229 31.34376436 51.22579085 28.5625 51.1875 C26.66732823 51.17243968 24.77214502 51.15875364 22.87695312 51.14648438 C18.25078881 51.11611568 13.62622193 51.0573762 9 51 C9 63.54 9 76.08 9 89 C6.03 89 3.06 89 0 89 C0 59.63 0 30.26 0 0 Z M9 8 C9 19.55 9 31.1 9 43 C14.630625 43.061875 20.26125 43.12375 26.0625 43.1875 C28.7077771 43.22846802 28.7077771 43.22846802 31.40649414 43.27026367 C32.82437457 43.27903602 34.24226264 43.28667818 35.66015625 43.29296875 C36.74000793 43.3159906 36.74000793 43.3159906 37.8416748 43.33947754 C44.31713139 43.34278528 48.95841538 41.90547898 53.8125 37.375 C57.02222995 33.08118907 58.18438364 28.21184399 57.87890625 22.890625 C56.88887908 17.62408869 54.20925171 13.32782721 50 10 C45.2220066 8.01807074 40.85988853 7.73268354 35.7578125 7.8046875 C35.07581787 7.80670166 34.39382324 7.80871582 33.69116211 7.81079102 C31.16903862 7.82117243 28.64701181 7.84909442 26.125 7.875 C20.47375 7.91625 14.8225 7.9575 9 8 Z " fill="#000000" transform="translate(1673,636)"/>
<path d="M0 0 C2.64 0 5.28 0 8 0 C8.33 10.56 8.66 21.12 9 32 C10.65 30.35 12.3 28.7 14 27 C19.88922273 21.97261474 27.11467748 20.72625348 34.71875 21.15234375 C42.11784153 22.35127062 47.49007984 25.49007984 52.75 30.75 C60.56496356 42.03828069 60.97768267 53.66473609 60 67 C58.26093859 76.33435974 53.21481369 82.09358731 46.4375 88.375 C38.989817 91.89572287 29.94468714 93.0806156 21.9609375 90.765625 C16.84472506 88.76805998 12.69232351 86.13540233 9 82 C8.67 84.31 8.34 86.62 8 89 C5.36 89 2.72 89 0 89 C0 59.63 0 30.26 0 0 Z M15.1875 35.6875 C9.28266682 43.07190414 7.48734384 51.40071704 8.21484375 60.765625 C9.26021767 67.89407957 11.24357344 74.87835725 16.96484375 79.6328125 C22.58292459 83.29450392 27.24574935 84.4579153 34 84 C40.13371345 81.8849264 44.91779637 79.28448135 48.1875 73.5625 C52.34406143 64.43503042 52.90249771 54.54103093 50 45 C47.49014697 38.29559806 44.05260572 33.63936233 37.625 30.1875 C28.97839971 27.35499301 21.36306898 29.06989029 15.1875 35.6875 Z " fill="#000000" transform="translate(994,636)"/>
<path d="M0 0 C3.31271032 3.78326576 4.54454729 6.82277863 4.62695312 11.76391602 C4.64367065 12.61812637 4.66038818 13.47233673 4.6776123 14.35243225 C4.69118774 15.2712468 4.70476318 16.19006134 4.71875 17.13671875 C4.74636414 18.55488136 4.74636414 18.55488136 4.77453613 20.00169373 C4.85326323 24.0510623 4.92104982 28.10059728 4.98974609 32.15014648 C5.04140751 35.1040892 5.09867539 38.05788635 5.15625 41.01171875 C5.16982544 41.93255753 5.18340088 42.8533963 5.1973877 43.80213928 C5.21410522 44.65319748 5.23082275 45.50425568 5.24804688 46.38110352 C5.26057495 47.13150406 5.27310303 47.8819046 5.28601074 48.65504456 C5.32931219 50.60213495 5.32931219 50.60213495 6.4375 52.5078125 C9.46684491 53.16553678 9.46684491 53.16553678 12.4375 53.5078125 C12.4375 56.1478125 12.4375 58.7878125 12.4375 61.5078125 C10.50068839 61.58888833 8.5629066 61.64703725 6.625 61.6953125 C5.54605469 61.73011719 4.46710937 61.76492188 3.35546875 61.80078125 C0.4375 61.5078125 0.4375 61.5078125 -1.32421875 60.24609375 C-2.63513528 58.40584815 -3.63889769 56.56815612 -4.5625 54.5078125 C-5.08199219 54.98992188 -5.60148437 55.47203125 -6.13671875 55.96875 C-6.83410156 56.60039063 -7.53148438 57.23203125 -8.25 57.8828125 C-8.93449219 58.50929688 -9.61898437 59.13578125 -10.32421875 59.78125 C-16.34431331 64.42502277 -23.88048603 64.8747628 -31.25390625 64.296875 C-36.80734698 63.39815024 -41.68587059 61.74434119 -45.5625 57.5078125 C-49.49105982 51.05243252 -49.34004428 44.86390555 -48.5625 37.5078125 C-46.32540754 32.51737548 -43.39021789 30.00788069 -38.5625 27.5078125 C-31.24628817 25.04231792 -23.74223031 23.9979605 -16.08251953 23.32958984 C-11.87445165 22.90573297 -8.95622707 22.06264074 -5.5625 19.5078125 C-3.87372799 15.67992928 -4.53339975 11.51277392 -5.51953125 7.53515625 C-6.85711009 4.93514345 -7.90240001 4.43837253 -10.625 3.4453125 C-18.12007683 1.67681123 -24.75127835 1.50121153 -31.5625 5.5078125 C-34.63379586 9.24317233 -36.23965552 12.87785683 -37.5625 17.5078125 C-40.2025 17.5078125 -42.8425 17.5078125 -45.5625 17.5078125 C-45.92695586 10.46166589 -45.02069276 6.45764381 -40.375 0.8828125 C-29.66494171 -8.16123672 -10.77886913 -10.29382002 0 0 Z M-7.0703125 28.421875 C-11.89017228 29.92066809 -16.75865689 30.53045202 -21.75390625 31.1875 C-28.55338928 32.20338201 -34.89796501 34.20556821 -39.5625 39.5078125 C-40.90631613 42.9633397 -40.56949801 44.48565214 -39.4375 48.0703125 C-36.95047684 52.62985497 -34.48130786 54.86820988 -29.5625 56.5078125 C-22.49962425 57.07284256 -15.8553486 55.55519604 -10.1875 51.1953125 C-3.8693475 44.7267278 -3.43959529 38.10634526 -3.52734375 29.51953125 C-3.53894531 28.85566406 -3.55054687 28.19179688 -3.5625 27.5078125 C-4.85077736 27.45073784 -4.85077736 27.45073784 -7.0703125 28.421875 Z " fill="#000000" transform="translate(2188.5625,663.4921875)"/>
<path d="M0 0 C3.31271032 3.78326576 4.54454729 6.82277863 4.62695312 11.76391602 C4.64367065 12.61812637 4.66038818 13.47233673 4.6776123 14.35243225 C4.69118774 15.2712468 4.70476318 16.19006134 4.71875 17.13671875 C4.74636414 18.55488136 4.74636414 18.55488136 4.77453613 20.00169373 C4.85326323 24.0510623 4.92104982 28.10059728 4.98974609 32.15014648 C5.04140751 35.1040892 5.09867539 38.05788635 5.15625 41.01171875 C5.16982544 41.93255753 5.18340088 42.8533963 5.1973877 43.80213928 C5.21410522 44.65319748 5.23082275 45.50425568 5.24804688 46.38110352 C5.26057495 47.13150406 5.27310303 47.8819046 5.28601074 48.65504456 C5.32931219 50.60213495 5.32931219 50.60213495 6.4375 52.5078125 C9.46684491 53.16553678 9.46684491 53.16553678 12.4375 53.5078125 C12.4375 56.1478125 12.4375 58.7878125 12.4375 61.5078125 C10.50068839 61.58888833 8.5629066 61.64703725 6.625 61.6953125 C5.54605469 61.73011719 4.46710938 61.76492188 3.35546875 61.80078125 C0.4375 61.5078125 0.4375 61.5078125 -1.32421875 60.24609375 C-2.63513528 58.40584815 -3.63889769 56.56815612 -4.5625 54.5078125 C-5.08199219 54.98992188 -5.60148437 55.47203125 -6.13671875 55.96875 C-6.83410156 56.60039063 -7.53148437 57.23203125 -8.25 57.8828125 C-8.93449219 58.50929688 -9.61898438 59.13578125 -10.32421875 59.78125 C-16.34431331 64.42502277 -23.88048603 64.8747628 -31.25390625 64.296875 C-36.80734698 63.39815024 -41.68587059 61.74434119 -45.5625 57.5078125 C-49.49105982 51.05243252 -49.34004428 44.86390555 -48.5625 37.5078125 C-46.32540754 32.51737548 -43.39021789 30.00788069 -38.5625 27.5078125 C-31.24628817 25.04231792 -23.74223031 23.9979605 -16.08251953 23.32958984 C-11.87445165 22.90573297 -8.95622707 22.06264074 -5.5625 19.5078125 C-3.87372799 15.67992928 -4.53339975 11.51277392 -5.51953125 7.53515625 C-6.85711009 4.93514345 -7.90240001 4.43837253 -10.625 3.4453125 C-18.12007683 1.67681123 -24.75127835 1.50121153 -31.5625 5.5078125 C-34.63379586 9.24317233 -36.23965552 12.87785683 -37.5625 17.5078125 C-40.2025 17.5078125 -42.8425 17.5078125 -45.5625 17.5078125 C-45.92695586 10.46166589 -45.02069276 6.45764381 -40.375 0.8828125 C-29.66494171 -8.16123672 -10.77886913 -10.29382002 0 0 Z M-7.0703125 28.421875 C-11.89017228 29.92066809 -16.75865689 30.53045202 -21.75390625 31.1875 C-28.55338928 32.20338201 -34.89796501 34.20556821 -39.5625 39.5078125 C-40.90631613 42.9633397 -40.56949801 44.48565214 -39.4375 48.0703125 C-36.95047684 52.62985497 -34.48130786 54.86820988 -29.5625 56.5078125 C-22.49962425 57.07284256 -15.8553486 55.55519604 -10.1875 51.1953125 C-3.8693475 44.7267278 -3.43959529 38.10634526 -3.52734375 29.51953125 C-3.53894531 28.85566406 -3.55054688 28.19179688 -3.5625 27.5078125 C-4.85077736 27.45073784 -4.85077736 27.45073784 -7.0703125 28.421875 Z " fill="#000000" transform="translate(1807.5625,663.4921875)"/>
<path d="M0 0 C3.31271032 3.78326576 4.54454729 6.82277863 4.62695312 11.76391602 C4.64367065 12.61812637 4.66038818 13.47233673 4.6776123 14.35243225 C4.69118774 15.2712468 4.70476318 16.19006134 4.71875 17.13671875 C4.74636414 18.55488136 4.74636414 18.55488136 4.77453613 20.00169373 C4.85326323 24.0510623 4.92104982 28.10059728 4.98974609 32.15014648 C5.04140751 35.1040892 5.09867539 38.05788635 5.15625 41.01171875 C5.16982544 41.93255753 5.18340088 42.8533963 5.1973877 43.80213928 C5.21410522 44.65319748 5.23082275 45.50425568 5.24804688 46.38110352 C5.26057495 47.13150406 5.27310303 47.8819046 5.28601074 48.65504456 C5.32931219 50.60213495 5.32931219 50.60213495 6.4375 52.5078125 C9.46684491 53.16553678 9.46684491 53.16553678 12.4375 53.5078125 C12.4375 56.1478125 12.4375 58.7878125 12.4375 61.5078125 C10.50068839 61.58888833 8.5629066 61.64703725 6.625 61.6953125 C5.54605469 61.73011719 4.46710938 61.76492188 3.35546875 61.80078125 C0.4375 61.5078125 0.4375 61.5078125 -1.32421875 60.24609375 C-2.63513528 58.40584815 -3.63889769 56.56815612 -4.5625 54.5078125 C-5.08199219 54.98992188 -5.60148437 55.47203125 -6.13671875 55.96875 C-6.83410156 56.60039063 -7.53148437 57.23203125 -8.25 57.8828125 C-8.93449219 58.50929688 -9.61898438 59.13578125 -10.32421875 59.78125 C-16.34431331 64.42502277 -23.88048603 64.8747628 -31.25390625 64.296875 C-36.80734698 63.39815024 -41.68587059 61.74434119 -45.5625 57.5078125 C-49.49105982 51.05243252 -49.34004428 44.86390555 -48.5625 37.5078125 C-46.32540754 32.51737548 -43.39021789 30.00788069 -38.5625 27.5078125 C-31.24628817 25.04231792 -23.74223031 23.9979605 -16.08251953 23.32958984 C-11.87445165 22.90573297 -8.95622707 22.06264074 -5.5625 19.5078125 C-3.87372799 15.67992928 -4.53339975 11.51277392 -5.51953125 7.53515625 C-6.85711009 4.93514345 -7.90240001 4.43837253 -10.625 3.4453125 C-18.12007683 1.67681123 -24.75127835 1.50121153 -31.5625 5.5078125 C-34.63379586 9.24317233 -36.23965552 12.87785683 -37.5625 17.5078125 C-40.2025 17.5078125 -42.8425 17.5078125 -45.5625 17.5078125 C-45.92695586 10.46166589 -45.02069276 6.45764381 -40.375 0.8828125 C-29.66494171 -8.16123672 -10.77886913 -10.29382002 0 0 Z M-7.0703125 28.421875 C-11.89017228 29.92066809 -16.75865689 30.53045202 -21.75390625 31.1875 C-28.55338928 32.20338201 -34.89796501 34.20556821 -39.5625 39.5078125 C-40.90631613 42.9633397 -40.56949801 44.48565214 -39.4375 48.0703125 C-36.95047684 52.62985497 -34.48130786 54.86820988 -29.5625 56.5078125 C-22.49962425 57.07284256 -15.8553486 55.55519604 -10.1875 51.1953125 C-3.8693475 44.7267278 -3.43959529 38.10634526 -3.52734375 29.51953125 C-3.53894531 28.85566406 -3.55054688 28.19179688 -3.5625 27.5078125 C-4.85077736 27.45073784 -4.85077736 27.45073784 -7.0703125 28.421875 Z " fill="#000000" transform="translate(1422.5625,663.4921875)"/>
<path d="M0 0 C6.04790585 5.65987649 8.84665201 10.98954549 11 19 C11 23.29 11 27.58 11 32 C-5.17 32.33 -21.34 32.66 -38 33 C-36.1664352 42.16782398 -34.82405018 48.3245332 -27.375 54 C-21.57914203 56.44036125 -16.01920936 56.8329467 -9.9375 54.9375 C-4.38198567 52.66135724 -1.12050288 48.39380161 1.375 43.0625 C1.58125 42.381875 1.7875 41.70125 2 41 C4.97 41 7.94 41 11 41 C9.75993517 48.9364149 7.36915053 54.23316125 1.21484375 59.5390625 C-6.28592436 64.80654236 -15.37251367 65.71566971 -24.296875 64.59375 C-31.72151579 62.96290405 -37.57593547 59.69287511 -41.75 53.25390625 C-42.36875 52.13822266 -42.36875 52.13822266 -43 51 C-43.61875 49.89978516 -43.61875 49.89978516 -44.25 48.77734375 C-48.96854182 38.43914969 -48.90765389 23.52062034 -45.5 12.75 C-42.31276909 5.71572546 -37.47095586 -0.15130685 -30.4375 -3.5 C-20.73555019 -7.09087446 -8.07005118 -7.30147488 0 0 Z M-30.625 7.0625 C-35.12036542 12.62255723 -38 17.79145148 -38 25 C-24.8 25 -11.6 25 2 25 C1.07259709 16.65337377 0.30468157 11.70571721 -5.9375 6.1875 C-14.30741829 0.20898694 -22.44184691 0.63287971 -30.625 7.0625 Z " fill="#000000" transform="translate(2313,663)"/>
<path d="M0 0 C4.85813289 5.39792543 6.28115241 8.69003722 6 16 C3.03 16 0.06 16 -3 16 C-3.20625 14.948125 -3.4125 13.89625 -3.625 12.8125 C-4.90587488 8.30199061 -7.16852264 6.60540461 -11 4 C-15.36665149 2.10778436 -20.72382706 2.30117497 -25.2265625 3.68359375 C-28.86810265 5.27925044 -30.64174823 6.38964513 -32.6875 9.875 C-33.11133765 14.11337652 -32.64214905 15.62392066 -30 19 C-25.53172195 21.75807428 -20.41898044 22.91955519 -15.36328125 24.14453125 C-14.53376953 24.34876709 -13.70425781 24.55300293 -12.84960938 24.76342773 C-11.19304928 25.16274289 -9.53151981 25.54211916 -7.86523438 25.89868164 C-2.07615086 27.26805914 2.05886357 29.4626386 6 34 C9.08632296 39.28973457 8.60046365 45.04725544 8 51 C5.12454713 57.0704005 0.3119408 60.93961423 -5.9296875 63.3984375 C-15.00357955 66.03500236 -25.40192417 65.63325785 -33.875 61.25 C-39.15100851 57.45127387 -42.50924236 53.50512425 -44 47 C-44.125 43.625 -44.125 43.625 -44 41 C-41.03 41 -38.06 41 -35 41 C-34.608125 42.4025 -34.21625 43.805 -33.8125 45.25 C-32.37513161 49.52852181 -31.00581356 51.67103863 -27 54 C-20.04297772 57.0247923 -13.92841598 56.45268881 -6.953125 53.9140625 C-4.36961546 52.70498003 -3.21578906 51.58355174 -2 49 C-1.05476525 46.16429574 -0.93444362 44.38397308 -1.4375 41.4375 C-5.97056108 34.36592472 -17.44368916 33.14056034 -25.04296875 31.2890625 C-31.4449632 29.6511382 -36.60460292 28.04362293 -40.84765625 22.65234375 C-43.03547432 17.61665402 -42.58930545 12.37148531 -42 7 C-39.6126012 1.42940281 -35.41831181 -1.56449621 -30 -4 C-20.31998205 -7.18143892 -7.90457141 -7.09384613 0 0 Z " fill="#000000" transform="translate(1345,663)"/>
<path d="M0 0 C3.3 0 6.6 0 10 0 C10.46897705 1.26593994 10.9379541 2.53187988 11.42114258 3.83618164 C13.16935612 8.55380501 14.91990452 13.27055917 16.67114258 17.98706055 C17.42730932 20.0245862 18.18285123 22.06234386 18.93774414 24.1003418 C20.02584419 27.03756639 21.11622331 29.97393639 22.20703125 32.91015625 C22.54152786 33.81459976 22.87602448 34.71904327 23.22065735 35.65089417 C24.63832643 39.46123523 26.07742252 43.23104018 27.73706055 46.94311523 C29 50 29 50 29 53 C29.66 53 30.32 53 31 53 C31.259021 51.72116943 31.51804199 50.44233887 31.78491211 49.12475586 C32.94293741 43.92673584 34.62477733 39.00364047 36.44140625 34.00390625 C36.76914536 33.08915024 37.09688446 32.17439423 37.43455505 31.23191833 C38.47214862 28.34026591 39.51735251 25.45142949 40.5625 22.5625 C41.26804747 20.59717364 41.97313001 18.6316803 42.67773438 16.66601562 C43.34854342 14.79933001 44.01975297 12.93278827 44.69140625 11.06640625 C45.16641319 9.74619225 45.16641319 9.74619225 45.65101624 8.39930725 C45.9447966 7.58763596 46.23857697 6.77596466 46.54125977 5.93969727 C46.79948013 5.22515884 47.0577005 4.51062042 47.32374573 3.77442932 C48 2 48 2 49 0 C51.97 0 54.94 0 58 0 C57.39310248 3.35563223 56.56994243 6.45431147 55.39282227 9.65307617 C55.06446381 10.55063629 54.73610535 11.44819641 54.39779663 12.37295532 C53.86250839 13.81836197 53.86250839 13.81836197 53.31640625 15.29296875 C52.94504547 16.30426849 52.57368469 17.31556824 52.19107056 18.35751343 C50.98572859 21.63573369 49.77461093 24.91177701 48.5625 28.1875 C47.94865952 29.85013382 47.94865952 29.85013382 47.32241821 31.5463562 C44.90891903 38.08337887 42.48756365 44.61744075 40.05944824 51.14904785 C39.12164606 53.6726531 38.1859206 56.19701461 37.25097656 58.72167969 C35.90939164 62.34019276 34.55164716 65.95242402 33.1875 69.5625 C32.82277588 70.54436279 32.45805176 71.52622559 32.08227539 72.5378418 C26.83020192 86.26330981 26.83020192 86.26330981 22.08666992 89.17407227 C16.73655785 91.29170759 11.53047164 91.24435612 6 90 C6 87.36 6 84.72 6 82 C6.59167969 82.04640625 7.18335938 82.0928125 7.79296875 82.140625 C11.63751626 82.31623239 14.31144738 82.33662572 17.8125 80.625 C21.58146606 76.10224073 24.21572896 70.95281988 23.77880859 64.97241211 C22.98339509 59.9653986 21.01969235 55.3938884 19.140625 50.7109375 C18.75436951 49.73065582 18.36811401 48.75037415 17.97015381 47.74038696 C16.73719946 44.61572944 15.49388246 41.49532113 14.25 38.375 C13.42897839 36.30106183 12.60865911 34.22684548 11.7890625 32.15234375 C10.22248332 28.18907087 8.65412255 24.22651264 7.08398438 20.26464844 C5.35587291 15.90063002 3.6284996 11.53653583 1.921875 7.1640625 C1.5412793 6.19162598 1.16068359 5.21918945 0.76855469 4.21728516 C0 2 0 2 0 0 Z " fill="#000000" transform="translate(1071,660)"/>
<path d="M0 0 C2.64 0 5.28 0 8 0 C8.01981934 1.25546631 8.03963867 2.51093262 8.06005859 3.80444336 C8.13655936 8.49555344 8.22520583 13.1863712 8.31738281 17.87719727 C8.35548979 19.90122678 8.39037338 21.9253198 8.421875 23.94946289 C8.46792511 26.87148627 8.52585084 29.79307924 8.5859375 32.71484375 C8.59748871 33.60896469 8.60903992 34.50308563 8.62094116 35.42430115 C8.77836077 42.23942107 9.20362471 48.98465576 12.75 54.9375 C16.86477833 58.70938013 21.39222893 59.4817516 26.9140625 59.3125 C32.23023105 58.51607025 35.98388069 56.23003916 39.375 52.125 C43.61792426 43.96553026 44.10831024 35.58103854 44.31640625 26.5625 C44.33718735 25.79695801 44.35796844 25.03141602 44.37937927 24.24267578 C44.44408136 21.8285302 44.50338541 19.41428819 44.5625 17 C44.60576095 15.35025097 44.64937748 13.70051122 44.69335938 12.05078125 C44.79967969 8.03394967 44.90116345 4.01702241 45 0 C47.64 0 50.28 0 53 0 C53 21.45 53 42.9 53 65 C50.36 65 47.72 65 45 65 C44.505 61.535 44.505 61.535 44 58 C43.48050781 58.48210938 42.96101563 58.96421875 42.42578125 59.4609375 C35.57014643 65.67029251 30.29767678 67.87854994 21 68 C14.89323623 67.4350571 9.58770197 66.26762974 5 62 C0.10900676 54.7042243 -0.69306697 48.26494158 -0.48828125 39.6484375 C-0.48120651 38.50839264 -0.47413177 37.36834778 -0.46684265 36.1937561 C-0.43906882 32.58680927 -0.37635905 28.98147001 -0.3125 25.375 C-0.2873953 22.91538715 -0.26458596 20.45574974 -0.24414062 17.99609375 C-0.18929803 11.99685625 -0.10584309 5.99854302 0 0 Z " fill="#000000" transform="translate(1891,660)"/>
<path d="M0 0 C2.97 0 5.94 0 9 0 C9.0697738 9.21488863 9.12294944 18.42968512 9.15543652 27.64478111 C9.17103542 31.92457849 9.19216697 36.20419398 9.22631836 40.48388672 C9.25911939 44.62065014 9.27689635 48.75723955 9.28463173 52.89412308 C9.29013826 54.46564087 9.30089037 56.03715008 9.31719017 57.60859299 C9.51396989 77.38163957 9.51396989 77.38163957 3.8125 84.875 C-2.76792951 89.84688008 -8.26597958 91.65860071 -16.5 91.5 C-17.30308594 91.51546875 -18.10617187 91.5309375 -18.93359375 91.546875 C-25.68398355 91.50311234 -30.65707858 89.58107685 -35.98828125 85.46484375 C-42.34135502 78.13725719 -43.46311092 69.41658873 -43 60 C-39.7 60 -36.4 60 -33 60 C-32.96132812 61.051875 -32.96132812 61.051875 -32.921875 62.125 C-32.5452947 68.42416136 -31.90272361 73.86351216 -28 79 C-22.97602318 82.92115264 -17.10247157 82.64475518 -11 82 C-6.70887311 80.69733648 -5.47038838 79.79479417 -3.1875 75.9375 C-0.0251073 67.0526585 -0.80246197 56.73967792 -0.68359375 47.4609375 C-0.66297197 46.08516898 -0.64197434 44.70940604 -0.62062073 43.33364868 C-0.56593852 39.74664899 -0.51629637 36.15959736 -0.46777344 32.57250977 C-0.41716012 28.89855434 -0.36168393 25.22467251 -0.30664062 21.55078125 C-0.19971979 14.36725017 -0.09813372 7.18365707 0 0 Z " fill="#000000" transform="translate(1233,636)"/>
<path d="M0 0 C2.64 0 5.28 0 8 0 C8 5.94 8 11.88 8 18 C12.29 18 16.58 18 21 18 C21 20.64 21 23.28 21 26 C16.71 26 12.42 26 8 26 C8.09364748 32.31739827 8.1997676 38.63441842 8.31738281 44.95141602 C8.35563385 47.09979534 8.39049347 49.24823787 8.421875 51.39672852 C8.46760937 54.48737146 8.52559056 57.57758081 8.5859375 60.66796875 C8.59748871 61.62648239 8.60903992 62.58499603 8.62094116 63.57255554 C8.69663252 70.03942009 8.69663252 70.03942009 11 76 C13.39115375 77.03343734 13.39115375 77.03343734 16.125 77.3125 C17.03507812 77.45300781 17.94515625 77.59351563 18.8828125 77.73828125 C19.93082031 77.86783203 19.93082031 77.86783203 21 78 C21.04241723 80.33294775 21.04092937 82.66702567 21 85 C20 86 20 86 16.4375 86.1875 C11.09128414 86.09151767 6.0588599 85.70199388 1.79003906 82.1730957 C-0.99261768 77.24044572 -0.49197827 72.48268371 -0.390625 66.91796875 C-0.38496521 65.74865311 -0.37930542 64.57933746 -0.37347412 63.37458801 C-0.35110936 59.64513975 -0.30091 55.9166572 -0.25 52.1875 C-0.22993525 49.65691493 -0.21168445 47.12631478 -0.1953125 44.59570312 C-0.15124378 38.39676414 -0.08221302 32.19854572 0 26 C-3.96 26 -7.92 26 -12 26 C-12 23.36 -12 20.72 -12 18 C-8.04 18 -4.08 18 0 18 C0 12.06 0 6.12 0 0 Z " fill="#000000" transform="translate(2225,641)"/>
<path d="M0 0 C0 2.97 0 5.94 0 9 C-0.72445313 9.17015625 -1.44890625 9.3403125 -2.1953125 9.515625 C-10.28805993 11.54420702 -16.1367875 13.87886741 -21 21 C-23.97727619 27.11125113 -24.16417018 33.55049704 -24.31640625 40.2421875 C-24.33718735 41.01055939 -24.35796844 41.77893127 -24.37937927 42.57058716 C-24.44433469 45.00530767 -24.50350638 47.44012847 -24.5625 49.875 C-24.6057367 51.5338642 -24.64935257 53.19271856 -24.69335938 54.8515625 C-24.79996003 58.90094104 -24.9013767 62.95041963 -25 67 C-27.64 67 -30.28 67 -33 67 C-33 45.55 -33 24.1 -33 2 C-30.36 2 -27.72 2 -25 2 C-24.67 5.3 -24.34 8.6 -24 12 C-22.989375 10.741875 -21.97875 9.48375 -20.9375 8.1875 C-15.1647851 1.60008743 -8.67599635 0 0 0 Z " fill="#000000" transform="translate(1872,658)"/>
<path d="M0 0 C2.64 0 5.28 0 8 0 C8 29.37 8 58.74 8 89 C5.36 89 2.72 89 0 89 C0 59.63 0 30.26 0 0 Z " fill="#000000" transform="translate(2347,636)"/>
<path d="M0 0 C2.64 0 5.28 0 8 0 C8 29.37 8 58.74 8 89 C5.36 89 2.72 89 0 89 C0 59.63 0 30.26 0 0 Z " fill="#000000" transform="translate(1971,636)"/>
<path d="M0 0 C2.64 0 5.28 0 8 0 C8 29.37 8 58.74 8 89 C5.36 89 2.72 89 0 89 C0 59.63 0 30.26 0 0 Z " fill="#000000" transform="translate(1455,636)"/>
<path d="M0 0 C2.64 0 5.28 0 8 0 C8 21.45 8 42.9 8 65 C5.36 65 2.72 65 0 65 C0 43.55 0 22.1 0 0 Z " fill="#000000" transform="translate(1270,660)"/>
<path d="M0 0 C2.64 0 5.28 0 8 0 C8 3.96 8 7.92 8 12 C5.36 12 2.72 12 0 12 C0 8.04 0 4.08 0 0 Z " fill="#000000" transform="translate(1270,636)"/>
</svg>
